<svg xmlns="http://www.w3.org/2000/svg" xmlns:xlink="http://www.w3.org/1999/xlink" width="350" zoomAndPan="magnify" viewBox="0 0 262.5 374.999991" height="500" preserveAspectRatio="xMidYMid meet" version="1.0"><defs><g/><clipPath id="7b96187a54"><path d="M 181 57 L 189.15625 57 L 189.15625 60 L 181 60 Z M 181 57 " clip-rule="nonzero"/></clipPath><clipPath id="705923b9a1"><path d="M 26.199219 211 L 143 211 L 143 333 L 26.199219 333 Z M 26.199219 211 " clip-rule="nonzero"/></clipPath><clipPath id="a127089f3f"><path d="M 87 124 L 235.800781 124 L 235.800781 280 L 87 280 Z M 87 124 " clip-rule="nonzero"/></clipPath></defs><path fill="#ffffff" d="M 179.628906 63.316406 C 179.402344 63.226562 179.144531 63.230469 179.097656 62.921875 C 179.058594 61.300781 176.984375 59.445312 177.570312 58.894531 C 179.636719 56.160156 177.269531 50.691406 173.535156 52.664062 C 172.921875 52.953125 172.726562 52.753906 172.359375 52.347656 C 171.695312 51.609375 171.445312 50.40625 170.179688 50.300781 C 169.675781 49.855469 169.613281 49.683594 169.070312 49.988281 C 165.625 51.613281 162.910156 54.402344 160.160156 56.976562 C 158.097656 58.808594 156.386719 61.140625 154.050781 62.609375 C 152.527344 63.355469 151.164062 64.292969 150.625 66.054688 C 149.308594 65.71875 148.734375 66.660156 149.449219 67.765625 C 151.15625 70.445312 152.304688 73.570312 154.507812 75.890625 C 154.878906 76.226562 155.304688 76.535156 155.820312 76.351562 C 156.414062 76.144531 156.578125 76.488281 156.839844 76.890625 C 158.230469 79.019531 159.738281 81.0625 161.507812 82.898438 C 162.289062 83.875 163.289062 83.59375 164.191406 82.714844 C 164.871094 81.996094 166.144531 83.164062 166.054688 81.511719 C 165.304688 78.445312 162.6875 76.214844 161.101562 73.566406 C 162.195312 72.730469 163.429688 72.816406 164.636719 72.332031 C 166.304688 72.027344 182.800781 65.054688 179.628906 63.316406 Z M 175.917969 55.1875 C 176.40625 56.046875 176.535156 57 176.664062 58.089844 C 175.484375 56.9375 174.949219 55.804688 173.953125 54.515625 C 175.082031 54.261719 175.476562 54.410156 175.917969 55.1875 Z M 156.210938 74.964844 C 155.808594 75.144531 155.554688 75.164062 155.328125 74.65625 C 154.144531 72.027344 152.984375 69.382812 151.339844 66.992188 C 150.910156 66.410156 153.222656 64.683594 153.761719 64.449219 C 154.082031 64.476562 154.113281 64.703125 154.195312 64.890625 C 155.328125 67.628906 156.785156 70.210938 158.632812 72.527344 C 159.121094 73.152344 159.105469 73.171875 158.445312 73.632812 C 157.734375 74.128906 157.007812 74.609375 156.210938 74.964844 Z M 163.292969 80.863281 C 163.449219 81.078125 163.832031 81.304688 163.410156 81.632812 C 162.984375 81.964844 162.722656 81.953125 162.398438 81.484375 C 161.074219 79.558594 159.671875 77.699219 158.050781 76.015625 C 157.765625 75.722656 157.664062 75.503906 158.03125 75.167969 C 158.433594 74.796875 158.757812 74.34375 159.226562 73.800781 C 160.207031 76.492188 161.714844 78.695312 163.292969 80.863281 Z M 177.613281 63.898438 C 172.367188 66.6875 167.132812 69.53125 161.578125 71.675781 C 161.003906 71.910156 161.003906 71.910156 160.714844 72.738281 C 159.421875 69.773438 157.738281 67.207031 156.375 64.46875 C 155.957031 63.621094 155.796875 63.710938 156.660156 63.066406 C 161.175781 59.273438 165.589844 55.269531 169.605469 50.949219 C 171.566406 55.667969 174.75 59.613281 177.851562 63.578125 C 177.875 63.785156 177.730469 63.835938 177.613281 63.898438 Z M 177.613281 63.898438 " fill-opacity="1" fill-rule="nonzero"/><g clip-path="url(#7b96187a54)"><path fill="#ffffff" d="M 189.03125 58.136719 C 188.199219 55.804688 183.859375 57.988281 182.230469 58.492188 C 181.890625 58.625 181.519531 58.753906 181.289062 59.191406 C 182.484375 59.828125 189.191406 60.066406 189.03125 58.136719 Z M 189.03125 58.136719 " fill-opacity="1" fill-rule="nonzero"/></g><path fill="#ffffff" d="M 174.816406 49.5 C 176.15625 47.972656 176.574219 45.726562 177.117188 43.78125 C 177.484375 42.71875 176.296875 41.570312 175.402344 42.5 C 174.445312 43.824219 173.972656 48.042969 174.816406 49.5 Z M 174.816406 49.5 " fill-opacity="1" fill-rule="nonzero"/><path fill="#ffffff" d="M 182.75 49.535156 C 181.816406 48.304688 180.195312 50.429688 180.050781 51.539062 C 180.765625 51.117188 183.089844 50.386719 182.75 49.535156 Z M 182.75 49.535156 " fill-opacity="1" fill-rule="nonzero"/><g clip-path="url(#705923b9a1)"><path fill="#ffffff" d="M 101.453125 217.128906 C 101.453125 217.128906 106.050781 228.203125 106.042969 228.203125 C 108.050781 229.183594 109.992188 230.308594 111.84375 231.550781 L 123.730469 229.996094 C 126.148438 229.675781 128.554688 230.589844 130.15625 232.421875 C 135.328125 238.351562 139.289062 245.210938 141.839844 252.65625 C 142.625 254.953125 142.207031 257.496094 140.722656 259.429688 C 140.722656 259.429688 133.4375 268.957031 133.4375 268.949219 C 133.589844 271.179688 133.589844 273.421875 133.4375 275.632812 L 140.722656 285.164062 C 142.207031 287.09375 142.625 289.636719 141.839844 291.9375 C 139.289062 299.378906 135.328125 306.238281 130.15625 312.167969 C 128.554688 314.003906 126.148438 314.914062 123.730469 314.59375 C 123.730469 314.59375 111.84375 313.042969 111.84375 313.042969 C 109.992188 314.285156 108.050781 315.410156 106.050781 316.390625 L 101.453125 327.460938 C 100.519531 329.710938 98.523438 331.34375 96.136719 331.808594 C 88.421875 333.324219 80.492188 333.324219 72.777344 331.808594 C 70.390625 331.34375 68.390625 329.710938 67.460938 327.460938 C 67.460938 327.460938 62.859375 316.390625 62.871094 316.390625 C 60.863281 315.410156 58.921875 314.285156 57.066406 313.042969 L 45.179688 314.59375 C 42.765625 314.914062 40.359375 314.003906 38.757812 312.167969 C 33.585938 306.238281 29.625 299.378906 27.074219 291.9375 C 26.289062 289.636719 26.703125 287.09375 28.1875 285.164062 C 28.1875 285.164062 35.476562 275.632812 35.476562 275.644531 C 35.320312 273.410156 35.320312 271.167969 35.476562 268.957031 L 28.1875 259.429688 C 26.703125 257.496094 26.289062 254.953125 27.074219 252.65625 C 29.625 245.210938 33.585938 238.351562 38.757812 232.421875 C 40.359375 230.589844 42.765625 229.675781 45.179688 229.996094 C 45.179688 229.996094 57.066406 231.550781 57.066406 231.550781 C 58.921875 230.308594 60.863281 229.183594 62.859375 228.203125 L 67.460938 217.128906 C 68.390625 214.878906 70.390625 213.25 72.777344 212.78125 C 80.492188 211.269531 88.421875 211.269531 96.136719 212.78125 C 98.523438 213.25 100.519531 214.878906 101.453125 217.128906 Z M 84.453125 253.996094 C 74.359375 253.996094 66.160156 262.195312 66.160156 272.296875 C 66.160156 282.398438 74.359375 290.597656 84.453125 290.597656 C 94.554688 290.597656 102.753906 282.398438 102.753906 272.296875 C 102.753906 262.195312 94.554688 253.996094 84.453125 253.996094 Z M 84.453125 253.996094 " fill-opacity="1" fill-rule="evenodd"/></g><g clip-path="url(#a127089f3f)"><path fill="#ffffff" d="M 99.09375 203.515625 C 99.046875 201.285156 99.105469 199.050781 99.289062 196.828125 L 89.136719 183.582031 C 87.664062 181.644531 87.246094 179.101562 88.03125 176.800781 C 91.292969 167.28125 96.367188 158.488281 102.976562 150.910156 C 104.578125 149.078125 106.992188 148.164062 109.410156 148.476562 C 109.410156 148.476562 125.953125 150.640625 125.953125 150.648438 C 128.757812 148.699219 131.726562 146.992188 134.8125 145.527344 L 141.207031 130.117188 C 142.148438 127.863281 144.140625 126.234375 146.535156 125.769531 C 156.40625 123.828125 166.554688 123.828125 176.421875 125.769531 C 178.8125 126.234375 180.808594 127.863281 181.742188 130.117188 C 181.742188 130.117188 188.144531 145.527344 188.136719 145.527344 C 191.230469 146.992188 194.191406 148.699219 197.003906 150.640625 L 213.550781 148.476562 C 215.964844 148.164062 218.371094 149.078125 219.972656 150.910156 C 226.59375 158.488281 231.667969 167.28125 234.925781 176.800781 C 235.714844 179.101562 235.296875 181.644531 233.8125 183.582031 C 233.8125 183.582031 223.671875 196.828125 223.671875 196.820312 C 223.953125 200.226562 223.953125 203.652344 223.671875 207.058594 L 233.8125 220.304688 C 235.296875 222.242188 235.714844 224.785156 234.925781 227.085938 C 231.667969 236.605469 226.59375 245.398438 219.972656 252.976562 C 218.371094 254.808594 215.964844 255.722656 213.550781 255.410156 C 213.550781 255.410156 197.003906 253.246094 197.003906 253.238281 C 194.199219 255.1875 191.230469 256.894531 188.144531 258.359375 L 181.742188 273.769531 C 180.808594 276.023438 178.8125 277.652344 176.421875 278.117188 C 166.953125 279.980469 157.21875 280.058594 147.730469 278.351562 L 143.257812 272.5 C 143.257812 272.363281 143.257812 272.226562 143.257812 272.089844 C 145.410156 269.277344 148.429688 265.339844 148.429688 265.339844 C 151.882812 260.824219 152.851562 254.886719 151.019531 249.511719 C 148.058594 240.882812 143.460938 232.917969 137.472656 226.046875 C 133.738281 221.769531 128.109375 219.632812 122.472656 220.371094 L 114.027344 221.476562 C 113.914062 221.410156 113.796875 221.339844 113.679688 221.273438 C 112.320312 218.003906 110.417969 213.414062 110.417969 213.414062 C 108.382812 208.511719 104.179688 204.863281 99.09375 203.515625 Z M 161.480469 177.820312 C 148.167969 177.820312 137.355469 188.628906 137.355469 201.945312 C 137.355469 215.257812 148.167969 226.066406 161.480469 226.066406 C 174.792969 226.066406 185.601562 215.257812 185.601562 201.945312 C 185.601562 188.628906 174.792969 177.820312 161.480469 177.820312 Z M 161.480469 177.820312 " fill-opacity="1" fill-rule="evenodd"/></g><g fill="#ffffff" fill-opacity="1"><g transform="translate(26.200094, 83.134252)"><g><path d="M 1.34375 -18.453125 L 8.078125 -18.453125 C 9.953125 -18.453125 11.472656 -17.96875 12.640625 -17 C 13.804688 -16.03125 14.390625 -14.617188 14.390625 -12.765625 C 14.390625 -10.921875 13.800781 -9.472656 12.625 -8.421875 C 11.445312 -7.367188 9.929688 -6.84375 8.078125 -6.84375 L 5.546875 -6.84375 L 5.546875 0 L 1.34375 0 Z M 5.546875 -10.203125 L 6.734375 -10.203125 C 7.671875 -10.203125 8.441406 -10.390625 9.046875 -10.765625 C 9.648438 -11.148438 9.953125 -11.773438 9.953125 -12.640625 C 9.953125 -13.523438 9.648438 -14.15625 9.046875 -14.53125 C 8.441406 -14.914062 7.671875 -15.109375 6.734375 -15.109375 L 5.546875 -15.109375 Z M 5.546875 -10.203125 "/></g></g></g><g fill="#ffffff" fill-opacity="1"><g transform="translate(39.975811, 83.134252)"><g><path d="M 1.34375 0 L 1.34375 -11.484375 L 5.296875 -11.484375 L 5.296875 -9.828125 L 5.34375 -9.828125 C 5.375 -9.878906 5.421875 -9.953125 5.484375 -10.046875 C 5.554688 -10.140625 5.703125 -10.296875 5.921875 -10.515625 C 6.148438 -10.742188 6.390625 -10.945312 6.640625 -11.125 C 6.898438 -11.300781 7.226562 -11.457031 7.625 -11.59375 C 8.03125 -11.738281 8.441406 -11.8125 8.859375 -11.8125 C 9.296875 -11.8125 9.722656 -11.75 10.140625 -11.625 C 10.554688 -11.507812 10.859375 -11.394531 11.046875 -11.28125 L 11.359375 -11.09375 L 9.703125 -7.734375 C 9.210938 -8.160156 8.53125 -8.375 7.65625 -8.375 C 7.175781 -8.375 6.765625 -8.265625 6.421875 -8.046875 C 6.078125 -7.835938 5.832031 -7.582031 5.6875 -7.28125 C 5.550781 -6.988281 5.453125 -6.738281 5.390625 -6.53125 C 5.328125 -6.320312 5.296875 -6.160156 5.296875 -6.046875 L 5.296875 0 Z M 1.34375 0 "/></g></g></g><g fill="#ffffff" fill-opacity="1"><g transform="translate(49.994436, 83.134252)"><g><path d="M 2.421875 -1.359375 C 1.148438 -2.492188 0.515625 -3.945312 0.515625 -5.71875 C 0.515625 -7.5 1.175781 -8.957031 2.5 -10.09375 C 3.832031 -11.238281 5.472656 -11.8125 7.421875 -11.8125 C 9.347656 -11.8125 10.972656 -11.238281 12.296875 -10.09375 C 13.617188 -8.945312 14.28125 -7.492188 14.28125 -5.734375 C 14.28125 -3.972656 13.632812 -2.519531 12.34375 -1.375 C 11.050781 -0.238281 9.410156 0.328125 7.421875 0.328125 C 5.367188 0.328125 3.703125 -0.234375 2.421875 -1.359375 Z M 5.484375 -7.671875 C 4.972656 -7.160156 4.71875 -6.507812 4.71875 -5.71875 C 4.71875 -4.9375 4.960938 -4.296875 5.453125 -3.796875 C 5.953125 -3.296875 6.601562 -3.046875 7.40625 -3.046875 C 8.175781 -3.046875 8.8125 -3.296875 9.3125 -3.796875 C 9.8125 -4.304688 10.0625 -4.953125 10.0625 -5.734375 C 10.0625 -6.515625 9.804688 -7.160156 9.296875 -7.671875 C 8.785156 -8.179688 8.15625 -8.4375 7.40625 -8.4375 C 6.644531 -8.4375 6.003906 -8.179688 5.484375 -7.671875 Z M 5.484375 -7.671875 "/></g></g></g><g fill="#ffffff" fill-opacity="1"><g transform="translate(63.658338, 83.134252)"><g><path d="M 1.34375 0 L 1.34375 -11.484375 L 5.296875 -11.484375 L 5.296875 -10.265625 L 5.34375 -10.265625 C 6.375 -11.296875 7.472656 -11.8125 8.640625 -11.8125 C 9.472656 -11.8125 10.253906 -11.640625 10.984375 -11.296875 C 11.710938 -10.953125 12.265625 -10.421875 12.640625 -9.703125 C 13.804688 -11.109375 15.078125 -11.8125 16.453125 -11.8125 C 17.671875 -11.8125 18.71875 -11.46875 19.59375 -10.78125 C 20.476562 -10.09375 20.921875 -9.019531 20.921875 -7.5625 L 20.921875 0 L 16.953125 0 L 16.953125 -6.484375 C 16.953125 -7.097656 16.785156 -7.609375 16.453125 -8.015625 C 16.117188 -8.429688 15.617188 -8.640625 14.953125 -8.640625 C 14.367188 -8.640625 13.921875 -8.460938 13.609375 -8.109375 C 13.304688 -7.753906 13.140625 -7.332031 13.109375 -6.84375 L 13.109375 0 L 9.15625 0 L 9.15625 -6.484375 C 9.15625 -7.097656 8.984375 -7.609375 8.640625 -8.015625 C 8.304688 -8.429688 7.804688 -8.640625 7.140625 -8.640625 C 6.523438 -8.640625 6.0625 -8.445312 5.75 -8.0625 C 5.445312 -7.6875 5.296875 -7.238281 5.296875 -6.71875 L 5.296875 0 Z M 1.34375 0 "/></g></g></g><g fill="#ffffff" fill-opacity="1"><g transform="translate(84.568069, 83.134252)"><g><path d="M 2.421875 -1.359375 C 1.148438 -2.492188 0.515625 -3.945312 0.515625 -5.71875 C 0.515625 -7.5 1.175781 -8.957031 2.5 -10.09375 C 3.832031 -11.238281 5.472656 -11.8125 7.421875 -11.8125 C 9.347656 -11.8125 10.972656 -11.238281 12.296875 -10.09375 C 13.617188 -8.945312 14.28125 -7.492188 14.28125 -5.734375 C 14.28125 -3.972656 13.632812 -2.519531 12.34375 -1.375 C 11.050781 -0.238281 9.410156 0.328125 7.421875 0.328125 C 5.367188 0.328125 3.703125 -0.234375 2.421875 -1.359375 Z M 5.484375 -7.671875 C 4.972656 -7.160156 4.71875 -6.507812 4.71875 -5.71875 C 4.71875 -4.9375 4.960938 -4.296875 5.453125 -3.796875 C 5.953125 -3.296875 6.601562 -3.046875 7.40625 -3.046875 C 8.175781 -3.046875 8.8125 -3.296875 9.3125 -3.796875 C 9.8125 -4.304688 10.0625 -4.953125 10.0625 -5.734375 C 10.0625 -6.515625 9.804688 -7.160156 9.296875 -7.671875 C 8.785156 -8.179688 8.15625 -8.4375 7.40625 -8.4375 C 6.644531 -8.4375 6.003906 -8.179688 5.484375 -7.671875 Z M 5.484375 -7.671875 "/></g></g></g><g fill="#ffffff" fill-opacity="1"><g transform="translate(98.231974, 83.134252)"><g><path d="M 2.015625 -11.484375 L 2.015625 -15.75 L 5.96875 -15.75 L 5.96875 -11.484375 L 8.390625 -11.484375 L 8.390625 -8.453125 L 5.96875 -8.453125 L 5.96875 -4.8125 C 5.96875 -3.75 6.269531 -3.21875 6.875 -3.21875 C 7.019531 -3.21875 7.171875 -3.25 7.328125 -3.3125 C 7.492188 -3.375 7.625 -3.429688 7.71875 -3.484375 L 7.859375 -3.578125 L 8.84375 -0.375 C 7.988281 0.09375 7.015625 0.328125 5.921875 0.328125 C 5.179688 0.328125 4.539062 0.195312 4 -0.0625 C 3.46875 -0.320312 3.0625 -0.671875 2.78125 -1.109375 C 2.507812 -1.546875 2.3125 -2.003906 2.1875 -2.484375 C 2.070312 -2.972656 2.015625 -3.492188 2.015625 -4.046875 L 2.015625 -8.453125 L 0.359375 -8.453125 L 0.359375 -11.484375 Z M 2.015625 -11.484375 "/></g></g></g><g fill="#ffffff" fill-opacity="1"><g transform="translate(105.947138, 83.134252)"><g><path d="M 1.71875 -17.875 C 2.1875 -18.34375 2.738281 -18.578125 3.375 -18.578125 C 4.019531 -18.578125 4.570312 -18.34375 5.03125 -17.875 C 5.5 -17.414062 5.734375 -16.863281 5.734375 -16.21875 C 5.734375 -15.582031 5.5 -15.03125 5.03125 -14.5625 C 4.570312 -14.101562 4.019531 -13.875 3.375 -13.875 C 2.738281 -13.875 2.1875 -14.101562 1.71875 -14.5625 C 1.257812 -15.03125 1.03125 -15.582031 1.03125 -16.21875 C 1.03125 -16.863281 1.257812 -17.414062 1.71875 -17.875 Z M 1.34375 -11.484375 L 1.34375 0 L 5.296875 0 L 5.296875 -11.484375 Z M 1.34375 -11.484375 "/></g></g></g><g fill="#ffffff" fill-opacity="1"><g transform="translate(111.582478, 83.134252)"><g><path d="M 2.421875 -1.359375 C 1.148438 -2.492188 0.515625 -3.945312 0.515625 -5.71875 C 0.515625 -7.5 1.175781 -8.957031 2.5 -10.09375 C 3.832031 -11.238281 5.472656 -11.8125 7.421875 -11.8125 C 9.347656 -11.8125 10.972656 -11.238281 12.296875 -10.09375 C 13.617188 -8.945312 14.28125 -7.492188 14.28125 -5.734375 C 14.28125 -3.972656 13.632812 -2.519531 12.34375 -1.375 C 11.050781 -0.238281 9.410156 0.328125 7.421875 0.328125 C 5.367188 0.328125 3.703125 -0.234375 2.421875 -1.359375 Z M 5.484375 -7.671875 C 4.972656 -7.160156 4.71875 -6.507812 4.71875 -5.71875 C 4.71875 -4.9375 4.960938 -4.296875 5.453125 -3.796875 C 5.953125 -3.296875 6.601562 -3.046875 7.40625 -3.046875 C 8.175781 -3.046875 8.8125 -3.296875 9.3125 -3.796875 C 9.8125 -4.304688 10.0625 -4.953125 10.0625 -5.734375 C 10.0625 -6.515625 9.804688 -7.160156 9.296875 -7.671875 C 8.785156 -8.179688 8.15625 -8.4375 7.40625 -8.4375 C 6.644531 -8.4375 6.003906 -8.179688 5.484375 -7.671875 Z M 5.484375 -7.671875 "/></g></g></g><g fill="#ffffff" fill-opacity="1"><g transform="translate(125.246378, 83.134252)"><g><path d="M 1.34375 0 L 1.34375 -11.484375 L 5.296875 -11.484375 L 5.296875 -10.265625 L 5.34375 -10.265625 C 6.375 -11.296875 7.472656 -11.8125 8.640625 -11.8125 C 9.203125 -11.8125 9.765625 -11.734375 10.328125 -11.578125 C 10.890625 -11.429688 11.425781 -11.203125 11.9375 -10.890625 C 12.445312 -10.578125 12.863281 -10.132812 13.1875 -9.5625 C 13.507812 -8.988281 13.671875 -8.320312 13.671875 -7.5625 L 13.671875 0 L 9.703125 0 L 9.703125 -6.484375 C 9.703125 -7.085938 9.507812 -7.609375 9.125 -8.046875 C 8.75 -8.492188 8.257812 -8.71875 7.65625 -8.71875 C 7.050781 -8.71875 6.503906 -8.488281 6.015625 -8.03125 C 5.535156 -7.570312 5.296875 -7.054688 5.296875 -6.484375 L 5.296875 0 Z M 1.34375 0 "/></g></g></g><g fill="#ffffff" fill-opacity="1"><g transform="translate(26.200094, 104.094327)"><g><path d="M 0.65625 -4.859375 C 0.65625 -5.410156 0.78125 -5.9375 1.03125 -6.4375 C 1.28125 -6.945312 1.632812 -7.410156 2.09375 -7.828125 C 2.5625 -8.242188 3.035156 -8.609375 3.515625 -8.921875 C 3.992188 -9.234375 4.535156 -9.554688 5.140625 -9.890625 C 3.910156 -11.441406 3.296875 -12.804688 3.296875 -13.984375 C 3.296875 -15.441406 3.804688 -16.609375 4.828125 -17.484375 C 5.847656 -18.359375 7.296875 -18.796875 9.171875 -18.796875 C 10.898438 -18.796875 12.242188 -18.3125 13.203125 -17.34375 C 14.171875 -16.375 14.65625 -15.253906 14.65625 -13.984375 C 14.65625 -13.460938 14.523438 -12.953125 14.265625 -12.453125 C 14.015625 -11.953125 13.710938 -11.523438 13.359375 -11.171875 C 13.015625 -10.828125 12.660156 -10.519531 12.296875 -10.25 C 11.941406 -9.976562 11.640625 -9.773438 11.390625 -9.640625 L 11.015625 -9.4375 L 13.46875 -6.890625 C 14.007812 -7.128906 14.910156 -7.90625 16.171875 -9.21875 L 18.765625 -6.671875 C 17.929688 -5.710938 17.0625 -4.867188 16.15625 -4.140625 L 20.140625 0 L 14.828125 0 L 13 -1.90625 C 12.4375 -1.5 12.019531 -1.207031 11.75 -1.03125 C 11.476562 -0.863281 11.078125 -0.644531 10.546875 -0.375 C 10.015625 -0.113281 9.46875 0.0664062 8.90625 0.171875 C 8.351562 0.273438 7.742188 0.328125 7.078125 0.328125 C 6.492188 0.328125 5.914062 0.28125 5.34375 0.1875 C 4.78125 0.09375 4.210938 -0.0703125 3.640625 -0.3125 C 3.066406 -0.5625 2.5625 -0.875 2.125 -1.25 C 1.695312 -1.625 1.34375 -2.117188 1.0625 -2.734375 C 0.789062 -3.359375 0.65625 -4.066406 0.65625 -4.859375 Z M 9.171875 -15.8125 C 8.640625 -15.8125 8.238281 -15.640625 7.96875 -15.296875 C 7.695312 -14.960938 7.5625 -14.523438 7.5625 -13.984375 C 7.5625 -13.671875 7.671875 -13.320312 7.890625 -12.9375 C 8.117188 -12.5625 8.34375 -12.257812 8.5625 -12.03125 L 8.90625 -11.71875 C 10.28125 -12.46875 10.96875 -13.222656 10.96875 -13.984375 C 10.96875 -15.203125 10.367188 -15.8125 9.171875 -15.8125 Z M 10.265625 -4.703125 L 7.34375 -7.578125 C 7.289062 -7.566406 7.21875 -7.539062 7.125 -7.5 C 7.039062 -7.46875 6.882812 -7.378906 6.65625 -7.234375 C 6.4375 -7.097656 6.242188 -6.941406 6.078125 -6.765625 C 5.921875 -6.597656 5.769531 -6.367188 5.625 -6.078125 C 5.488281 -5.796875 5.421875 -5.5 5.421875 -5.1875 C 5.421875 -4.695312 5.628906 -4.316406 6.046875 -4.046875 C 6.460938 -3.773438 6.945312 -3.640625 7.5 -3.640625 C 7.945312 -3.640625 8.398438 -3.722656 8.859375 -3.890625 C 9.316406 -4.066406 9.664062 -4.25 9.90625 -4.4375 Z M 10.265625 -4.703125 "/></g></g></g><g fill="#ffffff" fill-opacity="1"><g transform="translate(43.710549, 104.094327)"><g/></g></g><g fill="#ffffff" fill-opacity="1"><g transform="translate(48.697339, 104.094327)"><g><path d="M 1.34375 -18.453125 L 6.6875 -18.453125 C 9.25 -18.453125 11.441406 -17.578125 13.265625 -15.828125 C 15.085938 -14.078125 16 -11.878906 16 -9.234375 C 16 -6.585938 15.09375 -4.382812 13.28125 -2.625 C 11.46875 -0.875 9.269531 0 6.6875 0 L 1.34375 0 Z M 5.546875 -3.765625 L 6.203125 -3.765625 C 7.734375 -3.765625 8.988281 -4.28125 9.96875 -5.3125 C 10.945312 -6.351562 11.441406 -7.65625 11.453125 -9.21875 C 11.453125 -10.78125 10.960938 -12.082031 9.984375 -13.125 C 9.015625 -14.175781 7.753906 -14.703125 6.203125 -14.703125 L 5.546875 -14.703125 Z M 5.546875 -3.765625 "/></g></g></g><g fill="#ffffff" fill-opacity="1"><g transform="translate(64.083238, 104.094327)"><g><path d="M 1.71875 -17.875 C 2.1875 -18.34375 2.738281 -18.578125 3.375 -18.578125 C 4.019531 -18.578125 4.570312 -18.34375 5.03125 -17.875 C 5.5 -17.414062 5.734375 -16.863281 5.734375 -16.21875 C 5.734375 -15.582031 5.5 -15.03125 5.03125 -14.5625 C 4.570312 -14.101562 4.019531 -13.875 3.375 -13.875 C 2.738281 -13.875 2.1875 -14.101562 1.71875 -14.5625 C 1.257812 -15.03125 1.03125 -15.582031 1.03125 -16.21875 C 1.03125 -16.863281 1.257812 -17.414062 1.71875 -17.875 Z M 1.34375 -11.484375 L 1.34375 0 L 5.296875 0 L 5.296875 -11.484375 Z M 1.34375 -11.484375 "/></g></g></g><g fill="#ffffff" fill-opacity="1"><g transform="translate(69.718578, 104.094327)"><g><path d="M 0.828125 2.8125 L 4.078125 1.234375 C 4.671875 2.210938 5.707031 2.703125 7.1875 2.703125 C 7.875 2.703125 8.507812 2.484375 9.09375 2.046875 C 9.6875 1.609375 9.984375 0.929688 9.984375 0.015625 L 9.984375 -0.828125 C 9.273438 -0.0546875 8.019531 0.328125 6.21875 0.328125 C 4.5625 0.328125 3.195312 -0.253906 2.125 -1.421875 C 1.050781 -2.585938 0.515625 -4.019531 0.515625 -5.71875 C 0.515625 -7.425781 1.050781 -8.867188 2.125 -10.046875 C 3.195312 -11.222656 4.5625 -11.8125 6.21875 -11.8125 C 7.695312 -11.8125 8.925781 -11.359375 9.90625 -10.453125 L 9.984375 -10.453125 L 9.984375 -11.484375 L 13.9375 -11.484375 L 13.9375 0.3125 C 13.9375 2.175781 13.316406 3.613281 12.078125 4.625 C 10.835938 5.644531 9.207031 6.15625 7.1875 6.15625 C 3.90625 6.15625 1.785156 5.039062 0.828125 2.8125 Z M 5.484375 -7.671875 C 4.972656 -7.160156 4.71875 -6.507812 4.71875 -5.71875 C 4.71875 -4.9375 4.960938 -4.296875 5.453125 -3.796875 C 5.953125 -3.296875 6.601562 -3.046875 7.40625 -3.046875 C 8.175781 -3.046875 8.8125 -3.296875 9.3125 -3.796875 C 9.8125 -4.304688 10.0625 -4.953125 10.0625 -5.734375 C 10.0625 -6.515625 9.804688 -7.160156 9.296875 -7.671875 C 8.785156 -8.179688 8.15625 -8.4375 7.40625 -8.4375 C 6.644531 -8.4375 6.003906 -8.179688 5.484375 -7.671875 Z M 5.484375 -7.671875 "/></g></g></g><g fill="#ffffff" fill-opacity="1"><g transform="translate(83.874476, 104.094327)"><g><path d="M 1.71875 -17.875 C 2.1875 -18.34375 2.738281 -18.578125 3.375 -18.578125 C 4.019531 -18.578125 4.570312 -18.34375 5.03125 -17.875 C 5.5 -17.414062 5.734375 -16.863281 5.734375 -16.21875 C 5.734375 -15.582031 5.5 -15.03125 5.03125 -14.5625 C 4.570312 -14.101562 4.019531 -13.875 3.375 -13.875 C 2.738281 -13.875 2.1875 -14.101562 1.71875 -14.5625 C 1.257812 -15.03125 1.03125 -15.582031 1.03125 -16.21875 C 1.03125 -16.863281 1.257812 -17.414062 1.71875 -17.875 Z M 1.34375 -11.484375 L 1.34375 0 L 5.296875 0 L 5.296875 -11.484375 Z M 1.34375 -11.484375 "/></g></g></g><g fill="#ffffff" fill-opacity="1"><g transform="translate(89.509817, 104.094327)"><g><path d="M 2.015625 -11.484375 L 2.015625 -15.75 L 5.96875 -15.75 L 5.96875 -11.484375 L 8.390625 -11.484375 L 8.390625 -8.453125 L 5.96875 -8.453125 L 5.96875 -4.8125 C 5.96875 -3.75 6.269531 -3.21875 6.875 -3.21875 C 7.019531 -3.21875 7.171875 -3.25 7.328125 -3.3125 C 7.492188 -3.375 7.625 -3.429688 7.71875 -3.484375 L 7.859375 -3.578125 L 8.84375 -0.375 C 7.988281 0.09375 7.015625 0.328125 5.921875 0.328125 C 5.179688 0.328125 4.539062 0.195312 4 -0.0625 C 3.46875 -0.320312 3.0625 -0.671875 2.78125 -1.109375 C 2.507812 -1.546875 2.3125 -2.003906 2.1875 -2.484375 C 2.070312 -2.972656 2.015625 -3.492188 2.015625 -4.046875 L 2.015625 -8.453125 L 0.359375 -8.453125 L 0.359375 -11.484375 Z M 2.015625 -11.484375 "/></g></g></g><g fill="#ffffff" fill-opacity="1"><g transform="translate(97.224981, 104.094327)"><g><path d="M 2.125 -1.421875 C 1.050781 -2.585938 0.515625 -4.019531 0.515625 -5.71875 C 0.515625 -7.425781 1.050781 -8.867188 2.125 -10.046875 C 3.195312 -11.222656 4.5625 -11.8125 6.21875 -11.8125 C 7.738281 -11.8125 8.992188 -11.332031 9.984375 -10.375 L 9.984375 -11.484375 L 13.9375 -11.484375 L 13.9375 0 L 10.03125 0 L 10.03125 -1.296875 L 9.984375 -1.296875 C 8.992188 -0.210938 7.738281 0.328125 6.21875 0.328125 C 4.5625 0.328125 3.195312 -0.253906 2.125 -1.421875 Z M 5.484375 -7.671875 C 4.972656 -7.160156 4.71875 -6.507812 4.71875 -5.71875 C 4.71875 -4.9375 4.960938 -4.296875 5.453125 -3.796875 C 5.953125 -3.296875 6.601562 -3.046875 7.40625 -3.046875 C 8.175781 -3.046875 8.8125 -3.296875 9.3125 -3.796875 C 9.8125 -4.304688 10.0625 -4.953125 10.0625 -5.734375 C 10.0625 -6.515625 9.804688 -7.160156 9.296875 -7.671875 C 8.785156 -8.179688 8.15625 -8.4375 7.40625 -8.4375 C 6.644531 -8.4375 6.003906 -8.179688 5.484375 -7.671875 Z M 5.484375 -7.671875 "/></g></g></g><g fill="#ffffff" fill-opacity="1"><g transform="translate(111.38088, 104.094327)"><g><path d="M 1.34375 0 L 1.34375 -19.25 L 5.296875 -19.25 L 5.296875 0 Z M 1.34375 0 "/></g></g></g><g fill="#ffffff" fill-opacity="1"><g transform="translate(116.904407, 104.094327)"><g/></g></g><g fill="#ffffff" fill-opacity="1"><g transform="translate(121.891198, 104.094327)"><g><path d="M 16.609375 0 L 15.734375 -10.9375 L 15.625 -10.9375 L 11.84375 -0.109375 L 9.328125 -0.109375 L 5.546875 -10.9375 L 5.4375 -10.9375 L 4.5625 0 L 0.359375 0 L 2.015625 -18.453125 L 6.484375 -18.453125 L 10.578125 -7.8125 L 14.671875 -18.453125 L 19.15625 -18.453125 L 20.8125 0 Z M 16.609375 0 "/></g></g></g><g fill="#ffffff" fill-opacity="1"><g transform="translate(141.928754, 104.094327)"><g><path d="M 2.125 -1.421875 C 1.050781 -2.585938 0.515625 -4.019531 0.515625 -5.71875 C 0.515625 -7.425781 1.050781 -8.867188 2.125 -10.046875 C 3.195312 -11.222656 4.5625 -11.8125 6.21875 -11.8125 C 7.738281 -11.8125 8.992188 -11.332031 9.984375 -10.375 L 9.984375 -11.484375 L 13.9375 -11.484375 L 13.9375 0 L 10.03125 0 L 10.03125 -1.296875 L 9.984375 -1.296875 C 8.992188 -0.210938 7.738281 0.328125 6.21875 0.328125 C 4.5625 0.328125 3.195312 -0.253906 2.125 -1.421875 Z M 5.484375 -7.671875 C 4.972656 -7.160156 4.71875 -6.507812 4.71875 -5.71875 C 4.71875 -4.9375 4.960938 -4.296875 5.453125 -3.796875 C 5.953125 -3.296875 6.601562 -3.046875 7.40625 -3.046875 C 8.175781 -3.046875 8.8125 -3.296875 9.3125 -3.796875 C 9.8125 -4.304688 10.0625 -4.953125 10.0625 -5.734375 C 10.0625 -6.515625 9.804688 -7.160156 9.296875 -7.671875 C 8.785156 -8.179688 8.15625 -8.4375 7.40625 -8.4375 C 6.644531 -8.4375 6.003906 -8.179688 5.484375 -7.671875 Z M 5.484375 -7.671875 "/></g></g></g><g fill="#ffffff" fill-opacity="1"><g transform="translate(156.084648, 104.094327)"><g><path d="M 1.34375 0 L 1.34375 -11.484375 L 5.296875 -11.484375 L 5.296875 -9.828125 L 5.34375 -9.828125 C 5.375 -9.878906 5.421875 -9.953125 5.484375 -10.046875 C 5.554688 -10.140625 5.703125 -10.296875 5.921875 -10.515625 C 6.148438 -10.742188 6.390625 -10.945312 6.640625 -11.125 C 6.898438 -11.300781 7.226562 -11.457031 7.625 -11.59375 C 8.03125 -11.738281 8.441406 -11.8125 8.859375 -11.8125 C 9.296875 -11.8125 9.722656 -11.75 10.140625 -11.625 C 10.554688 -11.507812 10.859375 -11.394531 11.046875 -11.28125 L 11.359375 -11.09375 L 9.703125 -7.734375 C 9.210938 -8.160156 8.53125 -8.375 7.65625 -8.375 C 7.175781 -8.375 6.765625 -8.265625 6.421875 -8.046875 C 6.078125 -7.835938 5.832031 -7.582031 5.6875 -7.28125 C 5.550781 -6.988281 5.453125 -6.738281 5.390625 -6.53125 C 5.328125 -6.320312 5.296875 -6.160156 5.296875 -6.046875 L 5.296875 0 Z M 1.34375 0 "/></g></g></g><g fill="#ffffff" fill-opacity="1"><g transform="translate(166.103269, 104.094327)"><g><path d="M 14.453125 -11.484375 L 9 -6 L 14.984375 0 L 9.890625 0 L 5.296875 -4.59375 L 5.296875 0 L 1.34375 0 L 1.34375 -19.25 L 5.296875 -19.25 L 5.296875 -7.46875 L 9.3125 -11.484375 Z M 14.453125 -11.484375 "/></g></g></g><g fill="#ffffff" fill-opacity="1"><g transform="translate(179.431705, 104.094327)"><g><path d="M 12.953125 -5.1875 L 4.625 -5.1875 C 4.625 -4.382812 4.882812 -3.785156 5.40625 -3.390625 C 5.9375 -3.003906 6.503906 -2.8125 7.109375 -2.8125 C 7.753906 -2.8125 8.265625 -2.894531 8.640625 -3.0625 C 9.015625 -3.238281 9.4375 -3.582031 9.90625 -4.09375 L 12.78125 -2.65625 C 11.582031 -0.664062 9.597656 0.328125 6.828125 0.328125 C 5.097656 0.328125 3.613281 -0.257812 2.375 -1.4375 C 1.132812 -2.625 0.515625 -4.050781 0.515625 -5.71875 C 0.515625 -7.394531 1.132812 -8.828125 2.375 -10.015625 C 3.613281 -11.210938 5.097656 -11.8125 6.828125 -11.8125 C 8.640625 -11.8125 10.117188 -11.285156 11.265625 -10.234375 C 12.410156 -9.179688 12.984375 -7.679688 12.984375 -5.734375 C 12.984375 -5.460938 12.972656 -5.28125 12.953125 -5.1875 Z M 4.75 -7.390625 L 9.109375 -7.390625 C 9.015625 -7.984375 8.773438 -8.4375 8.390625 -8.75 C 8.015625 -9.070312 7.53125 -9.234375 6.9375 -9.234375 C 6.28125 -9.234375 5.753906 -9.0625 5.359375 -8.71875 C 4.972656 -8.382812 4.769531 -7.941406 4.75 -7.390625 Z M 4.75 -7.390625 "/></g></g></g><g fill="#ffffff" fill-opacity="1"><g transform="translate(191.798507, 104.094327)"><g><path d="M 2.015625 -11.484375 L 2.015625 -15.75 L 5.96875 -15.75 L 5.96875 -11.484375 L 8.390625 -11.484375 L 8.390625 -8.453125 L 5.96875 -8.453125 L 5.96875 -4.8125 C 5.96875 -3.75 6.269531 -3.21875 6.875 -3.21875 C 7.019531 -3.21875 7.171875 -3.25 7.328125 -3.3125 C 7.492188 -3.375 7.625 -3.429688 7.71875 -3.484375 L 7.859375 -3.578125 L 8.84375 -0.375 C 7.988281 0.09375 7.015625 0.328125 5.921875 0.328125 C 5.179688 0.328125 4.539062 0.195312 4 -0.0625 C 3.46875 -0.320312 3.0625 -0.671875 2.78125 -1.109375 C 2.507812 -1.546875 2.3125 -2.003906 2.1875 -2.484375 C 2.070312 -2.972656 2.015625 -3.492188 2.015625 -4.046875 L 2.015625 -8.453125 L 0.359375 -8.453125 L 0.359375 -11.484375 Z M 2.015625 -11.484375 "/></g></g></g><g fill="#ffffff" fill-opacity="1"><g transform="translate(199.513666, 104.094327)"><g><path d="M 1.71875 -17.875 C 2.1875 -18.34375 2.738281 -18.578125 3.375 -18.578125 C 4.019531 -18.578125 4.570312 -18.34375 5.03125 -17.875 C 5.5 -17.414062 5.734375 -16.863281 5.734375 -16.21875 C 5.734375 -15.582031 5.5 -15.03125 5.03125 -14.5625 C 4.570312 -14.101562 4.019531 -13.875 3.375 -13.875 C 2.738281 -13.875 2.1875 -14.101562 1.71875 -14.5625 C 1.257812 -15.03125 1.03125 -15.582031 1.03125 -16.21875 C 1.03125 -16.863281 1.257812 -17.414062 1.71875 -17.875 Z M 1.34375 -11.484375 L 1.34375 0 L 5.296875 0 L 5.296875 -11.484375 Z M 1.34375 -11.484375 "/></g></g></g><g fill="#ffffff" fill-opacity="1"><g transform="translate(205.149, 104.094327)"><g><path d="M 1.34375 0 L 1.34375 -11.484375 L 5.296875 -11.484375 L 5.296875 -10.265625 L 5.34375 -10.265625 C 6.375 -11.296875 7.472656 -11.8125 8.640625 -11.8125 C 9.203125 -11.8125 9.765625 -11.734375 10.328125 -11.578125 C 10.890625 -11.429688 11.425781 -11.203125 11.9375 -10.890625 C 12.445312 -10.578125 12.863281 -10.132812 13.1875 -9.5625 C 13.507812 -8.988281 13.671875 -8.320312 13.671875 -7.5625 L 13.671875 0 L 9.703125 0 L 9.703125 -6.484375 C 9.703125 -7.085938 9.507812 -7.609375 9.125 -8.046875 C 8.75 -8.492188 8.257812 -8.71875 7.65625 -8.71875 C 7.050781 -8.71875 6.503906 -8.488281 6.015625 -8.03125 C 5.535156 -7.570312 5.296875 -7.054688 5.296875 -6.484375 L 5.296875 0 Z M 1.34375 0 "/></g></g></g><g fill="#ffffff" fill-opacity="1"><g transform="translate(218.81291, 104.094327)"><g><path d="M 0.828125 2.8125 L 4.078125 1.234375 C 4.671875 2.210938 5.707031 2.703125 7.1875 2.703125 C 7.875 2.703125 8.507812 2.484375 9.09375 2.046875 C 9.6875 1.609375 9.984375 0.929688 9.984375 0.015625 L 9.984375 -0.828125 C 9.273438 -0.0546875 8.019531 0.328125 6.21875 0.328125 C 4.5625 0.328125 3.195312 -0.253906 2.125 -1.421875 C 1.050781 -2.585938 0.515625 -4.019531 0.515625 -5.71875 C 0.515625 -7.425781 1.050781 -8.867188 2.125 -10.046875 C 3.195312 -11.222656 4.5625 -11.8125 6.21875 -11.8125 C 7.695312 -11.8125 8.925781 -11.359375 9.90625 -10.453125 L 9.984375 -10.453125 L 9.984375 -11.484375 L 13.9375 -11.484375 L 13.9375 0.3125 C 13.9375 2.175781 13.316406 3.613281 12.078125 4.625 C 10.835938 5.644531 9.207031 6.15625 7.1875 6.15625 C 3.90625 6.15625 1.785156 5.039062 0.828125 2.8125 Z M 5.484375 -7.671875 C 4.972656 -7.160156 4.71875 -6.507812 4.71875 -5.71875 C 4.71875 -4.9375 4.960938 -4.296875 5.453125 -3.796875 C 5.953125 -3.296875 6.601562 -3.046875 7.40625 -3.046875 C 8.175781 -3.046875 8.8125 -3.296875 9.3125 -3.796875 C 9.8125 -4.304688 10.0625 -4.953125 10.0625 -5.734375 C 10.0625 -6.515625 9.804688 -7.160156 9.296875 -7.671875 C 8.785156 -8.179688 8.15625 -8.4375 7.40625 -8.4375 C 6.644531 -8.4375 6.003906 -8.179688 5.484375 -7.671875 Z M 5.484375 -7.671875 "/></g></g></g><g fill="#000000" fill-opacity="1"><g transform="translate(116.875805, 204.735753)"><g><path d="M -12.109375 -7.578125 L 0.40625 -12.15625 L 0.3125 -9.125 L -2.1875 -8.296875 L -2.34375 -3.59375 L 0.09375 -2.609375 L -0.015625 0.421875 L -12.1875 -4.96875 Z M -4.6875 -7.4375 L -8.328125 -6.15625 L -8.328125 -6.140625 L -4.78125 -4.640625 Z M -4.6875 -7.4375 "/></g></g></g><g fill="#000000" fill-opacity="1"><g transform="translate(116.781861, 194.644381)"><g><path d="M 1.6875 -5.34375 L 1.15625 -3.640625 L -7.40625 -2.03125 L -6.484375 -4.9375 L -1.96875 -5.46875 L -5.359375 -8.484375 L -4.8125 -10.21875 L -0.296875 -10.734375 L -3.6875 -13.75 L -2.765625 -16.671875 L 3.296875 -10.421875 L 2.765625 -8.71875 L -1.5625 -8.234375 Z M 1.6875 -5.34375 "/></g></g></g><g fill="#000000" fill-opacity="1"><g transform="translate(120.807068, 182.183376)"><g><path d="M -0.046875 -1.71875 C -1.085938 -1.53125 -2.085938 -1.738281 -3.046875 -2.34375 C -4.003906 -2.945312 -4.628906 -3.757812 -4.921875 -4.78125 C -5.210938 -5.8125 -5.0625 -6.796875 -4.46875 -7.734375 C -3.925781 -8.597656 -3.207031 -9.140625 -2.3125 -9.359375 L -2.921875 -9.734375 L -1.5 -11.984375 L 4.984375 -7.890625 L 3.578125 -5.671875 L 2.84375 -6.140625 L 2.828125 -6.109375 C 3.085938 -5.171875 2.945312 -4.269531 2.40625 -3.40625 C 1.8125 -2.46875 0.992188 -1.90625 -0.046875 -1.71875 Z M -2.375 -5.84375 C -2.269531 -5.375 -1.992188 -5 -1.546875 -4.71875 C -1.097656 -4.4375 -0.644531 -4.34375 -0.1875 -4.4375 C 0.269531 -4.53125 0.640625 -4.804688 0.921875 -5.265625 C 1.203125 -5.703125 1.285156 -6.148438 1.171875 -6.609375 C 1.066406 -7.078125 0.796875 -7.453125 0.359375 -7.734375 C -0.0859375 -8.015625 -0.546875 -8.101562 -1.015625 -8 C -1.484375 -7.894531 -1.851562 -7.628906 -2.125 -7.203125 C -2.394531 -6.773438 -2.476562 -6.320312 -2.375 -5.84375 Z M -2.375 -5.84375 "/></g></g></g><g fill="#000000" fill-opacity="1"><g transform="translate(125.519906, 174.716853)"><g><path d="M 0.59375 -0.65625 L -5.078125 -5.828125 L -3.28125 -7.796875 L -2.46875 -7.0625 L -2.453125 -7.078125 C -2.453125 -7.117188 -2.460938 -7.171875 -2.484375 -7.234375 C -2.503906 -7.304688 -2.515625 -7.453125 -2.515625 -7.671875 C -2.523438 -7.890625 -2.515625 -8.097656 -2.484375 -8.296875 C -2.460938 -8.503906 -2.394531 -8.738281 -2.28125 -9 C -2.175781 -9.269531 -2.03125 -9.503906 -1.84375 -9.703125 C -1.65625 -9.910156 -1.429688 -10.085938 -1.171875 -10.234375 C -0.921875 -10.390625 -0.726562 -10.492188 -0.59375 -10.546875 L -0.359375 -10.625 L 0.578125 -8.28125 C 0.140625 -8.226562 -0.273438 -7.984375 -0.671875 -7.546875 C -0.890625 -7.304688 -1.019531 -7.054688 -1.0625 -6.796875 C -1.113281 -6.535156 -1.097656 -6.304688 -1.015625 -6.109375 C -0.941406 -5.910156 -0.863281 -5.742188 -0.78125 -5.609375 C -0.707031 -5.484375 -0.644531 -5.398438 -0.59375 -5.359375 L 2.390625 -2.625 Z M 0.59375 -0.65625 "/></g></g></g><g fill="#000000" fill-opacity="1"><g transform="translate(129.517421, 170.087984)"><g><path d="M 4.671875 -8.078125 L 0.296875 -4.625 C 0.617188 -4.207031 0.992188 -4.003906 1.421875 -4.015625 C 1.859375 -4.035156 2.242188 -4.175781 2.578125 -4.4375 C 2.910156 -4.695312 3.140625 -4.945312 3.265625 -5.1875 C 3.398438 -5.4375 3.484375 -5.789062 3.515625 -6.25 L 5.609375 -6.6875 C 5.804688 -5.144531 5.175781 -3.800781 3.71875 -2.65625 C 2.8125 -1.9375 1.785156 -1.628906 0.640625 -1.734375 C -0.492188 -1.847656 -1.40625 -2.34375 -2.09375 -3.21875 C -2.789062 -4.101562 -3.0625 -5.113281 -2.90625 -6.25 C -2.75 -7.394531 -2.21875 -8.328125 -1.3125 -9.046875 C -0.351562 -9.796875 0.644531 -10.128906 1.6875 -10.046875 C 2.726562 -9.972656 3.648438 -9.421875 4.453125 -8.390625 C 4.566406 -8.242188 4.640625 -8.140625 4.671875 -8.078125 Z M -0.546875 -5.84375 L 1.734375 -7.640625 C 1.441406 -7.921875 1.125 -8.066406 0.78125 -8.078125 C 0.445312 -8.085938 0.125 -7.972656 -0.1875 -7.734375 C -0.53125 -7.460938 -0.734375 -7.15625 -0.796875 -6.8125 C -0.859375 -6.476562 -0.773438 -6.15625 -0.546875 -5.84375 Z M -0.546875 -5.84375 "/></g></g></g><g fill="#000000" fill-opacity="1"><g transform="translate(135.380114, 165.245736)"><g><path d="M 0.796875 -0.40625 L -2.71875 -7.21875 L -0.359375 -8.4375 L 0 -7.734375 L 0.015625 -7.75 C 0.316406 -8.675781 0.816406 -9.320312 1.515625 -9.6875 C 1.847656 -9.851562 2.203125 -9.976562 2.578125 -10.0625 C 2.960938 -10.144531 3.351562 -10.164062 3.75 -10.125 C 4.144531 -10.09375 4.523438 -9.957031 4.890625 -9.71875 C 5.265625 -9.476562 5.566406 -9.132812 5.796875 -8.6875 L 8.125 -4.1875 L 5.78125 -2.984375 L 3.796875 -6.84375 C 3.609375 -7.195312 3.328125 -7.445312 2.953125 -7.59375 C 2.585938 -7.738281 2.222656 -7.71875 1.859375 -7.53125 C 1.503906 -7.351562 1.253906 -7.050781 1.109375 -6.625 C 0.972656 -6.195312 0.992188 -5.816406 1.171875 -5.484375 L 3.15625 -1.625 Z M 0.796875 -0.40625 "/></g></g></g><g fill="#000000" fill-opacity="1"><g transform="translate(142.854333, 161.281744)"><g><path d="M 7.328125 -5.78125 L 1.984375 -4.203125 C 2.140625 -3.691406 2.421875 -3.359375 2.828125 -3.203125 C 3.234375 -3.054688 3.640625 -3.039062 4.046875 -3.15625 C 4.453125 -3.28125 4.757812 -3.429688 4.96875 -3.609375 C 5.175781 -3.785156 5.382812 -4.082031 5.59375 -4.5 L 7.703125 -4.109375 C 7.304688 -2.617188 6.21875 -1.609375 4.4375 -1.078125 C 3.332031 -0.753906 2.269531 -0.851562 1.25 -1.375 C 0.226562 -1.894531 -0.4375 -2.691406 -0.75 -3.765625 C -1.070312 -4.847656 -0.945312 -5.882812 -0.375 -6.875 C 0.195312 -7.875 1.035156 -8.535156 2.140625 -8.859375 C 3.304688 -9.203125 4.351562 -9.144531 5.28125 -8.6875 C 6.21875 -8.238281 6.875 -7.382812 7.25 -6.125 C 7.300781 -5.957031 7.328125 -5.84375 7.328125 -5.78125 Z M 1.65625 -5.625 L 4.453125 -6.453125 C 4.273438 -6.816406 4.03125 -7.066406 3.71875 -7.203125 C 3.414062 -7.347656 3.078125 -7.363281 2.703125 -7.25 C 2.285156 -7.125 1.984375 -6.914062 1.796875 -6.625 C 1.617188 -6.332031 1.570312 -6 1.65625 -5.625 Z M 1.65625 -5.625 "/></g></g></g><g fill="#000000" fill-opacity="1"><g transform="translate(150.211984, 159.073803)"><g><path d="M 3.234375 -8.359375 C 3.671875 -8.410156 4.109375 -8.414062 4.546875 -8.375 C 4.984375 -8.332031 5.3125 -8.269531 5.53125 -8.1875 L 5.859375 -8.09375 L 5.203125 -6.25 C 4.578125 -6.5 3.992188 -6.585938 3.453125 -6.515625 C 3.148438 -6.484375 2.941406 -6.425781 2.828125 -6.34375 C 2.710938 -6.269531 2.664062 -6.140625 2.6875 -5.953125 C 2.695312 -5.910156 2.707031 -5.867188 2.71875 -5.828125 C 2.726562 -5.796875 2.75 -5.765625 2.78125 -5.734375 C 2.820312 -5.703125 2.859375 -5.671875 2.890625 -5.640625 C 2.921875 -5.617188 2.96875 -5.597656 3.03125 -5.578125 C 3.09375 -5.566406 3.140625 -5.554688 3.171875 -5.546875 C 3.210938 -5.546875 3.273438 -5.53125 3.359375 -5.5 C 3.441406 -5.476562 3.503906 -5.460938 3.546875 -5.453125 C 3.585938 -5.441406 3.65625 -5.425781 3.75 -5.40625 C 3.851562 -5.394531 3.929688 -5.382812 3.984375 -5.375 C 4.304688 -5.332031 4.582031 -5.269531 4.8125 -5.1875 C 5.050781 -5.101562 5.3125 -4.976562 5.59375 -4.8125 C 5.875 -4.65625 6.101562 -4.445312 6.28125 -4.1875 C 6.457031 -3.925781 6.566406 -3.609375 6.609375 -3.234375 C 6.828125 -1.503906 5.726562 -0.488281 3.3125 -0.1875 C 2.769531 -0.125 2.242188 -0.144531 1.734375 -0.25 C 1.222656 -0.351562 0.847656 -0.472656 0.609375 -0.609375 L 0.25 -0.859375 L 1.078125 -2.78125 C 1.171875 -2.71875 1.285156 -2.644531 1.421875 -2.5625 C 1.566406 -2.488281 1.816406 -2.390625 2.171875 -2.265625 C 2.535156 -2.140625 2.835938 -2.09375 3.078125 -2.125 C 3.617188 -2.195312 3.867188 -2.421875 3.828125 -2.796875 C 3.804688 -2.960938 3.722656 -3.082031 3.578125 -3.15625 C 3.429688 -3.226562 3.179688 -3.300781 2.828125 -3.375 C 2.484375 -3.445312 2.210938 -3.523438 2.015625 -3.609375 C 1.503906 -3.804688 1.09375 -4.039062 0.78125 -4.3125 C 0.46875 -4.59375 0.28125 -4.988281 0.21875 -5.5 C 0.125 -6.269531 0.347656 -6.90625 0.890625 -7.40625 C 1.429688 -7.914062 2.210938 -8.234375 3.234375 -8.359375 Z M 3.234375 -8.359375 "/></g></g></g><g fill="#000000" fill-opacity="1"><g transform="translate(156.242162, 158.233263)"><g><path d="M 4.40625 -7.8125 C 4.84375 -7.800781 5.273438 -7.742188 5.703125 -7.640625 C 6.128906 -7.535156 6.445312 -7.425781 6.65625 -7.3125 L 6.96875 -7.171875 L 6.0625 -5.4375 C 5.46875 -5.769531 4.898438 -5.941406 4.359375 -5.953125 C 4.054688 -5.960938 3.84375 -5.9375 3.71875 -5.875 C 3.59375 -5.8125 3.53125 -5.6875 3.53125 -5.5 C 3.53125 -5.457031 3.53125 -5.414062 3.53125 -5.375 C 3.539062 -5.34375 3.5625 -5.304688 3.59375 -5.265625 C 3.625 -5.234375 3.648438 -5.203125 3.671875 -5.171875 C 3.703125 -5.148438 3.742188 -5.125 3.796875 -5.09375 C 3.859375 -5.070312 3.90625 -5.050781 3.9375 -5.03125 C 3.976562 -5.019531 4.035156 -4.992188 4.109375 -4.953125 C 4.191406 -4.921875 4.253906 -4.894531 4.296875 -4.875 C 4.335938 -4.863281 4.40625 -4.84375 4.5 -4.8125 C 4.59375 -4.78125 4.664062 -4.757812 4.71875 -4.75 C 5.019531 -4.65625 5.285156 -4.550781 5.515625 -4.4375 C 5.742188 -4.320312 5.984375 -4.164062 6.234375 -3.96875 C 6.484375 -3.769531 6.675781 -3.523438 6.8125 -3.234375 C 6.945312 -2.953125 7.007812 -2.625 7 -2.25 C 6.96875 -0.507812 5.738281 0.335938 3.3125 0.296875 C 2.757812 0.273438 2.234375 0.175781 1.734375 0 C 1.242188 -0.175781 0.894531 -0.347656 0.6875 -0.515625 L 0.359375 -0.8125 L 1.484375 -2.59375 C 1.554688 -2.519531 1.65625 -2.429688 1.78125 -2.328125 C 1.914062 -2.234375 2.148438 -2.097656 2.484375 -1.921875 C 2.816406 -1.753906 3.109375 -1.664062 3.359375 -1.65625 C 3.898438 -1.644531 4.175781 -1.828125 4.1875 -2.203125 C 4.1875 -2.367188 4.117188 -2.5 3.984375 -2.59375 C 3.859375 -2.695312 3.625 -2.8125 3.28125 -2.9375 C 2.945312 -3.0625 2.691406 -3.179688 2.515625 -3.296875 C 2.035156 -3.554688 1.660156 -3.84375 1.390625 -4.15625 C 1.117188 -4.476562 0.988281 -4.898438 1 -5.421875 C 1.019531 -6.191406 1.332031 -6.785156 1.9375 -7.203125 C 2.550781 -7.628906 3.375 -7.832031 4.40625 -7.8125 Z M 4.40625 -7.8125 "/></g></g></g><g fill="#000000" fill-opacity="1"><g transform="translate(162.35621, 158.303447)"><g><path d="M 1.734375 -5.28125 L 6.5 -4.515625 L 6.140625 -2.234375 L 1.375 -3 Z M 1.734375 -5.28125 "/></g></g></g><g fill="#000000" fill-opacity="1"><g transform="translate(167.613359, 158.886358)"><g><path d="M 4.765625 -11.421875 L 8.40625 -10.203125 C 9.507812 -9.835938 10.304688 -9.3125 10.796875 -8.625 C 11.296875 -7.945312 11.367188 -7.082031 11.015625 -6.03125 C 10.617188 -4.851562 9.847656 -4.175781 8.703125 -4 C 10.273438 -3.15625 10.78125 -1.894531 10.21875 -0.21875 C 9.882812 0.757812 9.273438 1.4375 8.390625 1.8125 C 7.515625 2.1875 6.484375 2.171875 5.296875 1.765625 L 0.84375 0.28125 Z M 5.921875 -5.953125 L 6.125 -5.875 C 6.71875 -5.675781 7.195312 -5.628906 7.5625 -5.734375 C 7.925781 -5.847656 8.1875 -6.144531 8.34375 -6.625 C 8.601562 -7.40625 8.140625 -7.992188 6.953125 -8.390625 L 6.75 -8.46875 Z M 4.21875 -0.890625 L 5.046875 -0.609375 C 6.347656 -0.171875 7.144531 -0.382812 7.4375 -1.25 C 7.613281 -1.78125 7.570312 -2.210938 7.3125 -2.546875 C 7.0625 -2.878906 6.613281 -3.15625 5.96875 -3.375 L 5.140625 -3.65625 Z M 4.21875 -0.890625 "/></g></g></g><g fill="#000000" fill-opacity="1"><g transform="translate(175.725721, 161.454065)"><g><path d="M 6.765625 -4.953125 L 4.953125 -1.8125 C 4.566406 -1.144531 4.394531 -0.613281 4.4375 -0.21875 C 4.488281 0.175781 4.75 0.507812 5.21875 0.78125 C 5.695312 1.050781 6.113281 1.101562 6.46875 0.9375 C 6.820312 0.78125 7.191406 0.367188 7.578125 -0.296875 L 9.390625 -3.4375 L 11.6875 -2.109375 L 9.546875 1.59375 C 8.910156 2.707031 8.164062 3.335938 7.3125 3.484375 C 6.457031 3.640625 5.398438 3.351562 4.140625 2.625 C 2.890625 1.90625 2.117188 1.140625 1.828125 0.328125 C 1.535156 -0.484375 1.707031 -1.445312 2.34375 -2.5625 L 4.484375 -6.265625 Z M 6.765625 -4.953125 "/></g></g></g><g fill="#000000" fill-opacity="1"><g transform="translate(183.080593, 165.80082)"><g><path d="M 8.265625 -8.71875 C 8.691406 -8.78125 9.078125 -8.675781 9.421875 -8.40625 C 9.765625 -8.144531 9.960938 -7.796875 10.015625 -7.359375 C 10.066406 -6.921875 9.957031 -6.53125 9.6875 -6.1875 C 9.425781 -5.851562 9.082031 -5.660156 8.65625 -5.609375 C 8.226562 -5.554688 7.84375 -5.660156 7.5 -5.921875 C 7.15625 -6.191406 6.957031 -6.539062 6.90625 -6.96875 C 6.851562 -7.40625 6.957031 -7.789062 7.21875 -8.125 C 7.488281 -8.46875 7.835938 -8.664062 8.265625 -8.71875 Z M 5.421875 -5.5 L 0.703125 0.546875 L 2.796875 2.1875 L 7.515625 -3.859375 Z M 5.421875 -5.5 "/></g></g></g><g fill="#000000" fill-opacity="1"><g transform="translate(185.839513, 167.901617)"><g><path d="M 0.65625 0.609375 L 9.375 -8.859375 L 11.328125 -7.0625 L 2.609375 2.40625 Z M 0.65625 0.609375 "/></g></g></g><g fill="#000000" fill-opacity="1"><g transform="translate(188.386307, 169.841947)"><g><path d="M 1.640625 0.5 C 1.796875 -0.550781 2.3125 -1.429688 3.1875 -2.140625 C 4.070312 -2.859375 5.046875 -3.1875 6.109375 -3.125 C 7.179688 -3.070312 8.066406 -2.617188 8.765625 -1.765625 C 9.410156 -0.960938 9.6875 -0.113281 9.59375 0.78125 L 14.203125 -2.953125 L 15.875 -0.890625 L 5.875 7.234375 L 4.234375 5.203125 L 4.90625 4.65625 L 4.875 4.625 C 3.90625 4.582031 3.097656 4.160156 2.453125 3.359375 C 1.753906 2.503906 1.484375 1.550781 1.640625 0.5 Z M 6.296875 -0.390625 C 5.816406 -0.441406 5.367188 -0.300781 4.953125 0.03125 C 4.546875 0.375 4.316406 0.773438 4.265625 1.234375 C 4.210938 1.703125 4.359375 2.144531 4.703125 2.5625 C 5.023438 2.96875 5.421875 3.191406 5.890625 3.234375 C 6.367188 3.285156 6.8125 3.148438 7.21875 2.828125 C 7.632812 2.484375 7.863281 2.066406 7.90625 1.578125 C 7.945312 1.097656 7.8125 0.664062 7.5 0.28125 C 7.175781 -0.113281 6.773438 -0.335938 6.296875 -0.390625 Z M 6.296875 -0.390625 "/></g></g></g><g fill="#000000" fill-opacity="1"><g transform="translate(193.929791, 176.843423)"><g><path d="M 10.859375 -5.140625 C 11.285156 -5.035156 11.609375 -4.796875 11.828125 -4.421875 C 12.046875 -4.046875 12.097656 -3.648438 11.984375 -3.234375 C 11.878906 -2.816406 11.640625 -2.492188 11.265625 -2.265625 C 10.898438 -2.046875 10.503906 -1.988281 10.078125 -2.09375 C 9.660156 -2.195312 9.34375 -2.4375 9.125 -2.8125 C 8.90625 -3.1875 8.847656 -3.582031 8.953125 -4 C 9.066406 -4.414062 9.304688 -4.734375 9.671875 -4.953125 C 10.046875 -5.179688 10.441406 -5.242188 10.859375 -5.140625 Z M 7.046875 -3.15625 L 0.453125 0.765625 L 1.8125 3.046875 L 8.40625 -0.875 Z M 7.046875 -3.15625 "/></g></g></g><g fill="#000000" fill-opacity="1"><g transform="translate(195.843414, 179.510173)"><g><path d="M 0.34375 0.828125 L 7.421875 -2.140625 L 8.453125 0.296875 L 7.71875 0.609375 L 7.71875 0.640625 C 8.625 1.015625 9.226562 1.5625 9.53125 2.28125 C 9.675781 2.632812 9.773438 3 9.828125 3.375 C 9.878906 3.757812 9.867188 4.148438 9.796875 4.546875 C 9.734375 4.953125 9.566406 5.328125 9.296875 5.671875 C 9.035156 6.015625 8.671875 6.285156 8.203125 6.484375 L 3.53125 8.4375 L 2.515625 6 L 6.515625 4.328125 C 6.890625 4.171875 7.164062 3.914062 7.34375 3.5625 C 7.519531 3.21875 7.53125 2.859375 7.375 2.484375 C 7.21875 2.109375 6.929688 1.828125 6.515625 1.640625 C 6.109375 1.460938 5.726562 1.445312 5.375 1.59375 L 1.375 3.265625 Z M 0.34375 0.828125 "/></g></g></g><g fill="#000000" fill-opacity="1"><g transform="translate(199.249546, 187.217638)"><g><path d="M -1.75 0.890625 L -0.296875 2.828125 C -0.859375 3.347656 -1.046875 4.09375 -0.859375 5.0625 C -0.773438 5.507812 -0.546875 5.894531 -0.171875 6.21875 C 0.191406 6.550781 0.671875 6.660156 1.265625 6.546875 L 1.8125 6.4375 C 1.21875 6.082031 0.804688 5.3125 0.578125 4.125 C 0.367188 3.039062 0.578125 2.070312 1.203125 1.21875 C 1.828125 0.363281 2.695312 -0.171875 3.8125 -0.390625 C 4.925781 -0.609375 5.941406 -0.441406 6.859375 0.109375 C 7.785156 0.660156 8.351562 1.476562 8.5625 2.5625 C 8.75 3.53125 8.601562 4.394531 8.125 5.15625 L 8.140625 5.203125 L 8.8125 5.078125 L 9.3125 7.6875 L 1.578125 9.1875 C 0.347656 9.425781 -0.671875 9.203125 -1.484375 8.515625 C -2.304688 7.835938 -2.847656 6.832031 -3.109375 5.5 C -3.523438 3.34375 -3.070312 1.804688 -1.75 0.890625 Z M 5.734375 2.609375 C 5.347656 2.335938 4.890625 2.253906 4.359375 2.359375 C 3.835938 2.460938 3.445312 2.707031 3.1875 3.09375 C 2.925781 3.476562 2.847656 3.9375 2.953125 4.46875 C 3.046875 4.976562 3.289062 5.363281 3.6875 5.625 C 4.082031 5.894531 4.535156 5.976562 5.046875 5.875 C 5.578125 5.769531 5.972656 5.515625 6.234375 5.109375 C 6.492188 4.710938 6.578125 4.269531 6.484375 3.78125 C 6.378906 3.28125 6.128906 2.890625 5.734375 2.609375 Z M 5.734375 2.609375 "/></g></g></g><g fill="#000000" fill-opacity="1"><g transform="translate(200.84234, 196.021013)"><g/></g></g><g fill="#000000" fill-opacity="1"><g transform="translate(201.360451, 198.806213)"><g><path d="M 1.796875 7.6875 C 1.753906 8.101562 1.773438 8.519531 1.859375 8.9375 C 1.953125 9.363281 2.046875 9.675781 2.140625 9.875 L 2.328125 10.171875 L -0.1875 11.140625 C -0.207031 11.097656 -0.238281 11.039062 -0.28125 10.96875 C -0.320312 10.894531 -0.394531 10.722656 -0.5 10.453125 C -0.613281 10.179688 -0.707031 9.894531 -0.78125 9.59375 C -0.851562 9.289062 -0.90625 8.90625 -0.9375 8.4375 C -0.96875 7.96875 -0.957031 7.484375 -0.90625 6.984375 C -0.789062 5.835938 -0.40625 4.78125 0.25 3.8125 C 0.914062 2.84375 1.769531 2.09375 2.8125 1.5625 C 3.863281 1.039062 4.957031 0.835938 6.09375 0.953125 C 6.957031 1.035156 7.765625 1.300781 8.515625 1.75 C 9.273438 2.195312 9.90625 2.753906 10.40625 3.421875 C 10.914062 4.085938 11.300781 4.84375 11.5625 5.6875 C 11.820312 6.53125 11.910156 7.378906 11.828125 8.234375 C 11.742188 9.023438 11.570312 9.75 11.3125 10.40625 C 11.050781 11.0625 10.816406 11.519531 10.609375 11.78125 L 10.28125 12.171875 L 8.03125 10.734375 C 8.082031 10.679688 8.160156 10.585938 8.265625 10.453125 C 8.367188 10.316406 8.507812 10.046875 8.6875 9.640625 C 8.863281 9.234375 8.972656 8.820312 9.015625 8.40625 C 9.078125 7.726562 9.023438 7.109375 8.859375 6.546875 C 8.703125 5.984375 8.457031 5.53125 8.125 5.1875 C 7.789062 4.84375 7.429688 4.566406 7.046875 4.359375 C 6.660156 4.148438 6.253906 4.023438 5.828125 3.984375 C 4.898438 3.890625 4.023438 4.15625 3.203125 4.78125 C 2.390625 5.414062 1.921875 6.382812 1.796875 7.6875 Z M 1.796875 7.6875 "/></g></g></g><g fill="#000000" fill-opacity="1"><g transform="translate(200.507515, 208.517218)"><g><path d="M 0.453125 1.640625 C 1.421875 1.203125 2.441406 1.160156 3.515625 1.515625 C 4.597656 1.867188 5.40625 2.507812 5.9375 3.4375 C 6.46875 4.375 6.5625 5.367188 6.21875 6.421875 C 5.894531 7.390625 5.332031 8.085938 4.53125 8.515625 L 5.21875 8.734375 L 4.390625 11.25 L -2.90625 8.859375 L -2.09375 6.375 L -1.265625 6.640625 L -1.25 6.609375 C -1.738281 5.765625 -1.820312 4.859375 -1.5 3.890625 C -1.15625 2.835938 -0.503906 2.085938 0.453125 1.640625 Z M 3.71875 5.09375 C 3.507812 4.65625 3.148438 4.351562 2.640625 4.1875 C 2.140625 4.03125 1.679688 4.054688 1.265625 4.265625 C 0.847656 4.472656 0.554688 4.832031 0.390625 5.34375 C 0.234375 5.84375 0.257812 6.300781 0.46875 6.71875 C 0.6875 7.132812 1.046875 7.421875 1.546875 7.578125 C 2.046875 7.742188 2.507812 7.71875 2.9375 7.5 C 3.363281 7.289062 3.65625 6.945312 3.8125 6.46875 C 3.96875 5.988281 3.9375 5.53125 3.71875 5.09375 Z M 3.71875 5.09375 "/></g></g></g><g fill="#000000" fill-opacity="1"><g transform="translate(198.284847, 216.873946)"><g><path d="M -0.484375 0.75 L 5.953125 4.90625 L 4.515625 7.140625 L 3.859375 6.71875 L 3.84375 6.734375 C 4.039062 7.691406 3.925781 8.5 3.5 9.15625 C 3.195312 9.613281 2.816406 9.984375 2.359375 10.265625 C 1.898438 10.554688 1.398438 10.675781 0.859375 10.625 C 1.234375 11.789062 1.171875 12.757812 0.671875 13.53125 C 0.222656 14.226562 -0.347656 14.695312 -1.046875 14.9375 C -1.753906 15.1875 -2.519531 15.046875 -3.34375 14.515625 L -7.59375 11.765625 L -6.15625 9.53125 L -2.515625 11.890625 C -2.171875 12.109375 -1.820312 12.195312 -1.46875 12.15625 C -1.113281 12.125 -0.8125 11.921875 -0.5625 11.546875 C -0.351562 11.210938 -0.289062 10.894531 -0.375 10.59375 C -0.46875 10.289062 -0.644531 10.039062 -0.90625 9.84375 L -4.75 7.359375 L -3.328125 5.140625 L 0.3125 7.5 C 0.65625 7.71875 1.003906 7.804688 1.359375 7.765625 C 1.722656 7.734375 2.023438 7.53125 2.265625 7.15625 C 2.492188 6.800781 2.554688 6.46875 2.453125 6.15625 C 2.347656 5.851562 2.144531 5.609375 1.84375 5.421875 L -1.921875 2.984375 Z M -0.484375 0.75 "/></g></g></g><g fill="#000000" fill-opacity="1"><g transform="translate(191.125103, 227.814968)"><g><path d="M -1.953125 10.890625 C -3.003906 10.796875 -3.914062 10.328125 -4.6875 9.484375 C -5.457031 8.648438 -5.84375 7.703125 -5.84375 6.640625 C -5.84375 5.578125 -5.429688 4.675781 -4.609375 3.9375 C -3.859375 3.25 -3.03125 2.914062 -2.125 2.9375 L -5.25 -0.484375 L -3.28125 -2.28125 L 4.515625 6.25 L 2.578125 8.03125 L 2 7.40625 L 1.96875 7.421875 C 1.976562 8.398438 1.609375 9.234375 0.859375 9.921875 C 0.0351562 10.660156 -0.898438 10.984375 -1.953125 10.890625 Z M -3.109375 6.28125 C -3.140625 6.769531 -2.976562 7.207031 -2.625 7.59375 C -2.269531 7.988281 -1.851562 8.195312 -1.375 8.21875 C -0.90625 8.238281 -0.472656 8.066406 -0.078125 7.703125 C 0.304688 7.359375 0.503906 6.945312 0.515625 6.46875 C 0.535156 5.988281 0.367188 5.5625 0.015625 5.1875 C -0.335938 4.789062 -0.753906 4.582031 -1.234375 4.5625 C -1.710938 4.550781 -2.140625 4.710938 -2.515625 5.046875 C -2.890625 5.390625 -3.085938 5.800781 -3.109375 6.28125 Z M -3.109375 6.28125 "/></g></g></g><g fill="#000000" fill-opacity="1"><g transform="translate(184.777438, 233.826401)"><g><path d="M -0.734375 1.53125 C 0.273438 1.84375 1.066406 2.488281 1.640625 3.46875 C 2.222656 4.445312 2.40625 5.457031 2.1875 6.5 C 1.96875 7.550781 1.382812 8.359375 0.4375 8.921875 C -0.4375 9.441406 -1.320312 9.59375 -2.21875 9.375 L -1.84375 10 L -4.125 11.359375 L -8.03125 4.75 L -5.765625 3.40625 L -5.328125 4.15625 L -5.3125 4.140625 C -5.101562 3.179688 -4.5625 2.441406 -3.6875 1.921875 C -2.738281 1.359375 -1.753906 1.226562 -0.734375 1.53125 Z M -0.546875 6.28125 C -0.421875 5.820312 -0.492188 5.363281 -0.765625 4.90625 C -1.035156 4.445312 -1.394531 4.15625 -1.84375 4.03125 C -2.300781 3.914062 -2.765625 3.992188 -3.234375 4.265625 C -3.679688 4.535156 -3.960938 4.898438 -4.078125 5.359375 C -4.191406 5.816406 -4.113281 6.269531 -3.84375 6.71875 C -3.570312 7.175781 -3.203125 7.460938 -2.734375 7.578125 C -2.265625 7.703125 -1.816406 7.632812 -1.390625 7.375 C -0.953125 7.113281 -0.671875 6.75 -0.546875 6.28125 Z M -0.546875 6.28125 "/></g></g></g><g fill="#000000" fill-opacity="1"><g transform="translate(177.034075, 238.270896)"><g><path d="M 3.46875 11.5 C 3.300781 11.90625 3.015625 12.1875 2.609375 12.34375 C 2.210938 12.507812 1.8125 12.507812 1.40625 12.34375 C 1.007812 12.175781 0.726562 11.890625 0.5625 11.484375 C 0.394531 11.085938 0.394531 10.6875 0.5625 10.28125 C 0.738281 9.882812 1.023438 9.601562 1.421875 9.4375 C 1.828125 9.28125 2.226562 9.285156 2.625 9.453125 C 3.019531 9.617188 3.300781 9.898438 3.46875 10.296875 C 3.632812 10.703125 3.632812 11.101562 3.46875 11.5 Z M 2.078125 7.4375 L -0.828125 0.34375 L -3.28125 1.34375 L -0.375 8.4375 Z M 2.078125 7.4375 "/></g></g></g><g fill="#000000" fill-opacity="1"><g transform="translate(174.127782, 239.781664)"><g><path d="M -0.984375 -1.703125 L -2.84375 -0.140625 C -3.394531 -0.691406 -4.148438 -0.847656 -5.109375 -0.609375 C -5.554688 -0.492188 -5.929688 -0.242188 -6.234375 0.140625 C -6.535156 0.523438 -6.613281 1.007812 -6.46875 1.59375 L -6.34375 2.140625 C -6.007812 1.523438 -5.253906 1.070312 -4.078125 0.78125 C -3.003906 0.519531 -2.023438 0.679688 -1.140625 1.265625 C -0.253906 1.847656 0.320312 2.691406 0.59375 3.796875 C 0.875 4.898438 0.757812 5.921875 0.25 6.859375 C -0.257812 7.804688 -1.050781 8.410156 -2.125 8.671875 C -3.082031 8.910156 -3.953125 8.8125 -4.734375 8.375 L -4.78125 8.390625 L -4.609375 9.046875 L -7.1875 9.6875 L -9.09375 2.046875 C -9.394531 0.835938 -9.226562 -0.191406 -8.59375 -1.046875 C -7.957031 -1.898438 -6.984375 -2.492188 -5.671875 -2.828125 C -3.535156 -3.359375 -1.972656 -2.984375 -0.984375 -1.703125 Z M -2.328125 5.859375 C -2.078125 5.453125 -2.015625 4.988281 -2.140625 4.46875 C -2.265625 3.957031 -2.523438 3.578125 -2.921875 3.328125 C -3.328125 3.085938 -3.796875 3.035156 -4.328125 3.171875 C -4.828125 3.296875 -5.195312 3.5625 -5.4375 3.96875 C -5.675781 4.375 -5.734375 4.832031 -5.609375 5.34375 C -5.484375 5.851562 -5.210938 6.226562 -4.796875 6.46875 C -4.378906 6.71875 -3.929688 6.785156 -3.453125 6.671875 C -2.953125 6.546875 -2.578125 6.273438 -2.328125 5.859375 Z M -2.328125 5.859375 "/></g></g></g><g fill="#000000" fill-opacity="1"><g transform="translate(165.66988, 242.025362)"><g><path d="M -0.890625 0.03125 L -0.578125 7.703125 L -3.234375 7.8125 L -3.265625 7.015625 L -3.296875 7.015625 C -3.960938 7.734375 -4.6875 8.109375 -5.46875 8.140625 C -5.84375 8.148438 -6.21875 8.113281 -6.59375 8.03125 C -6.96875 7.945312 -7.332031 7.804688 -7.6875 7.609375 C -8.039062 7.410156 -8.332031 7.125 -8.5625 6.75 C -8.789062 6.382812 -8.914062 5.945312 -8.9375 5.4375 L -9.140625 0.375 L -6.5 0.265625 L -6.328125 4.609375 C -6.304688 5.003906 -6.160156 5.347656 -5.890625 5.640625 C -5.628906 5.929688 -5.296875 6.066406 -4.890625 6.046875 C -4.484375 6.035156 -4.125 5.863281 -3.8125 5.53125 C -3.5 5.207031 -3.351562 4.859375 -3.375 4.484375 L -3.546875 0.140625 Z M -0.890625 0.03125 "/></g></g></g><g fill="#000000" fill-opacity="1"><g transform="translate(157.164729, 242.380503)"><g><path d="M -5.25 7.28125 C -5.675781 7.226562 -6.097656 7.125 -6.515625 6.96875 C -6.929688 6.8125 -7.234375 6.664062 -7.421875 6.53125 L -7.71875 6.359375 L -6.625 4.734375 C -6.070312 5.140625 -5.53125 5.375 -5 5.4375 C -4.695312 5.476562 -4.476562 5.472656 -4.34375 5.421875 C -4.207031 5.378906 -4.128906 5.265625 -4.109375 5.078125 C -4.097656 5.035156 -4.09375 4.992188 -4.09375 4.953125 C -4.101562 4.921875 -4.125 4.882812 -4.15625 4.84375 C -4.1875 4.800781 -4.210938 4.765625 -4.234375 4.734375 C -4.253906 4.710938 -4.289062 4.679688 -4.34375 4.640625 C -4.394531 4.609375 -4.4375 4.582031 -4.46875 4.5625 C -4.507812 4.539062 -4.566406 4.507812 -4.640625 4.46875 C -4.710938 4.425781 -4.769531 4.394531 -4.8125 4.375 C -4.851562 4.351562 -4.914062 4.320312 -5 4.28125 C -5.082031 4.238281 -5.148438 4.207031 -5.203125 4.1875 C -5.503906 4.0625 -5.757812 3.929688 -5.96875 3.796875 C -6.1875 3.671875 -6.40625 3.492188 -6.625 3.265625 C -6.851562 3.035156 -7.019531 2.769531 -7.125 2.46875 C -7.226562 2.164062 -7.253906 1.832031 -7.203125 1.46875 C -6.972656 -0.257812 -5.65625 -0.96875 -3.25 -0.65625 C -2.707031 -0.582031 -2.195312 -0.425781 -1.71875 -0.1875 C -1.25 0.0390625 -0.921875 0.25 -0.734375 0.4375 L -0.453125 0.765625 L -1.75 2.421875 C -1.820312 2.335938 -1.914062 2.238281 -2.03125 2.125 C -2.15625 2.019531 -2.375 1.859375 -2.6875 1.640625 C -3 1.429688 -3.28125 1.3125 -3.53125 1.28125 C -4.070312 1.207031 -4.363281 1.359375 -4.40625 1.734375 C -4.425781 1.898438 -4.375 2.035156 -4.25 2.140625 C -4.132812 2.253906 -3.914062 2.390625 -3.59375 2.546875 C -3.269531 2.710938 -3.023438 2.859375 -2.859375 2.984375 C -2.410156 3.304688 -2.070312 3.640625 -1.84375 3.984375 C -1.613281 4.328125 -1.535156 4.757812 -1.609375 5.28125 C -1.703125 6.039062 -2.078125 6.597656 -2.734375 6.953125 C -3.390625 7.304688 -4.226562 7.414062 -5.25 7.28125 Z M -5.25 7.28125 "/></g></g></g><g fill="#000000" fill-opacity="1"><g transform="translate(50.296596, 267.155954)"><g><path d="M -8.515625 -11.09375 L -1.765625 -9.609375 C -0.484375 -9.328125 0.40625 -8.765625 0.90625 -7.921875 C 1.414062 -7.085938 1.519531 -6.003906 1.21875 -4.671875 C 0.925781 -3.335938 0.378906 -2.394531 -0.421875 -1.84375 C -1.234375 -1.300781 -2.28125 -1.171875 -3.5625 -1.453125 L -10.3125 -2.9375 L -9.78125 -5.3125 L -3.734375 -3.984375 C -2.890625 -3.796875 -2.273438 -3.796875 -1.890625 -3.984375 C -1.503906 -4.179688 -1.242188 -4.578125 -1.109375 -5.171875 C -0.984375 -5.773438 -1.054688 -6.242188 -1.328125 -6.578125 C -1.597656 -6.921875 -2.15625 -7.1875 -3 -7.375 L -9.046875 -8.703125 Z M -8.515625 -11.09375 "/></g></g></g><g fill="#000000" fill-opacity="1"><g transform="translate(52.027171, 258.914412)"><g><path d="M 0.34375 -0.703125 L -5.65625 -3.59375 L -4.671875 -5.671875 L -4.03125 -5.359375 L -4.015625 -5.359375 C -4.296875 -6.171875 -4.289062 -6.875 -4 -7.46875 C -3.863281 -7.769531 -3.6875 -8.046875 -3.46875 -8.296875 C -3.25 -8.554688 -2.992188 -8.78125 -2.703125 -8.96875 C -2.410156 -9.164062 -2.070312 -9.273438 -1.6875 -9.296875 C -1.300781 -9.316406 -0.910156 -9.234375 -0.515625 -9.046875 L 3.4375 -7.140625 L 2.4375 -5.0625 L -0.953125 -6.6875 C -1.265625 -6.84375 -1.582031 -6.878906 -1.90625 -6.796875 C -2.238281 -6.710938 -2.484375 -6.507812 -2.640625 -6.1875 C -2.785156 -5.875 -2.796875 -5.535156 -2.671875 -5.171875 C -2.554688 -4.804688 -2.351562 -4.550781 -2.0625 -4.40625 L 1.328125 -2.78125 Z M 0.34375 -0.703125 "/></g></g></g><g fill="#000000" fill-opacity="1"><g transform="translate(55.087507, 252.197889)"><g><path d="M 0.109375 -1.484375 C -0.804688 -1.410156 -1.648438 -1.675781 -2.421875 -2.28125 C -3.191406 -2.894531 -3.648438 -3.660156 -3.796875 -4.578125 C -3.953125 -5.492188 -3.734375 -6.328125 -3.140625 -7.078125 C -2.597656 -7.765625 -1.929688 -8.160156 -1.140625 -8.265625 L -5.171875 -11.453125 L -3.75 -13.265625 L 5 -6.34375 L 3.609375 -4.5625 L 3.015625 -5.03125 L 2.984375 -5 C 3.117188 -4.164062 2.914062 -3.40625 2.375 -2.71875 C 1.78125 -1.96875 1.023438 -1.554688 0.109375 -1.484375 Z M -1.515625 -5.25 C -1.472656 -4.832031 -1.269531 -4.476562 -0.90625 -4.1875 C -0.550781 -3.90625 -0.171875 -3.785156 0.234375 -3.828125 C 0.640625 -3.878906 0.984375 -4.09375 1.265625 -4.46875 C 1.546875 -4.820312 1.660156 -5.203125 1.609375 -5.609375 C 1.566406 -6.015625 1.375 -6.351562 1.03125 -6.625 C 0.664062 -6.914062 0.273438 -7.035156 -0.140625 -6.984375 C -0.566406 -6.929688 -0.914062 -6.738281 -1.1875 -6.40625 C -1.457031 -6.050781 -1.566406 -5.664062 -1.515625 -5.25 Z M -1.515625 -5.25 "/></g></g></g><g fill="#000000" fill-opacity="1"><g transform="translate(59.790692, 246.128434)"><g><path d="M 3.859375 -7.125 L 0.140625 -4.046875 C 0.441406 -3.679688 0.78125 -3.507812 1.15625 -3.53125 C 1.53125 -3.550781 1.851562 -3.671875 2.125 -3.890625 C 2.414062 -4.128906 2.613281 -4.351562 2.71875 -4.5625 C 2.820312 -4.78125 2.882812 -5.09375 2.90625 -5.5 L 4.71875 -5.90625 C 4.925781 -4.582031 4.410156 -3.40625 3.171875 -2.375 C 2.398438 -1.738281 1.515625 -1.453125 0.515625 -1.515625 C -0.472656 -1.585938 -1.273438 -1.992188 -1.890625 -2.734375 C -2.503906 -3.484375 -2.753906 -4.351562 -2.640625 -5.34375 C -2.523438 -6.332031 -2.082031 -7.144531 -1.3125 -7.78125 C -0.5 -8.457031 0.347656 -8.769531 1.234375 -8.71875 C 2.128906 -8.675781 2.941406 -8.21875 3.671875 -7.34375 C 3.765625 -7.226562 3.828125 -7.15625 3.859375 -7.125 Z M -0.609375 -5.046875 L 1.328125 -6.671875 C 1.066406 -6.890625 0.789062 -7.003906 0.5 -7.015625 C 0.21875 -7.023438 -0.0546875 -6.914062 -0.328125 -6.6875 C -0.617188 -6.445312 -0.785156 -6.179688 -0.828125 -5.890625 C -0.878906 -5.597656 -0.804688 -5.316406 -0.609375 -5.046875 Z M -0.609375 -5.046875 "/></g></g></g><g fill="#000000" fill-opacity="1"><g transform="translate(64.934902, 241.819592)"><g><path d="M 0.6875 -0.390625 L -2.59375 -6.1875 L -0.59375 -7.3125 L -0.109375 -6.46875 C -0.109375 -6.507812 -0.101562 -6.5625 -0.09375 -6.625 C -0.0820312 -6.695312 -0.0507812 -6.820312 0 -7 C 0.0390625 -7.175781 0.0976562 -7.34375 0.171875 -7.5 C 0.253906 -7.65625 0.378906 -7.828125 0.546875 -8.015625 C 0.710938 -8.203125 0.898438 -8.359375 1.109375 -8.484375 C 1.328125 -8.609375 1.554688 -8.695312 1.796875 -8.75 C 2.035156 -8.8125 2.222656 -8.84375 2.359375 -8.84375 L 2.5625 -8.859375 L 2.6875 -6.671875 C 2.320312 -6.742188 1.914062 -6.65625 1.46875 -6.40625 C 1.226562 -6.257812 1.050781 -6.085938 0.9375 -5.890625 C 0.832031 -5.691406 0.785156 -5.492188 0.796875 -5.296875 C 0.804688 -5.109375 0.828125 -4.953125 0.859375 -4.828125 C 0.890625 -4.710938 0.925781 -4.625 0.96875 -4.5625 L 2.6875 -1.515625 Z M 0.6875 -0.390625 "/></g></g></g><g fill="#000000" fill-opacity="1"><g transform="translate(69.469071, 238.998822)"><g><path d="M 5.375 -7.9375 C 6.1875 -7.5 6.75 -6.8125 7.0625 -5.875 C 7.375 -4.945312 7.34375 -4.0625 6.96875 -3.21875 C 6.59375 -2.375 5.953125 -1.800781 5.046875 -1.5 C 4.203125 -1.21875 3.425781 -1.242188 2.71875 -1.578125 L 3.984375 2.234375 L 1.796875 2.953125 L -1.375 -6.5625 L 0.78125 -7.28125 L 1.015625 -6.5625 L 1.046875 -6.5625 C 1.378906 -7.34375 1.96875 -7.875 2.8125 -8.15625 C 3.71875 -8.457031 4.570312 -8.382812 5.375 -7.9375 Z M 4.671875 -3.875 C 4.867188 -4.25 4.894531 -4.65625 4.75 -5.09375 C 4.613281 -5.53125 4.363281 -5.84375 4 -6.03125 C 3.632812 -6.21875 3.226562 -6.238281 2.78125 -6.09375 C 2.351562 -5.945312 2.046875 -5.6875 1.859375 -5.3125 C 1.679688 -4.9375 1.660156 -4.535156 1.796875 -4.109375 C 1.941406 -3.671875 2.203125 -3.363281 2.578125 -3.1875 C 2.960938 -3.007812 3.359375 -2.988281 3.765625 -3.125 C 4.179688 -3.257812 4.484375 -3.507812 4.671875 -3.875 Z M 4.671875 -3.875 "/></g></g></g><g fill="#000000" fill-opacity="1"><g transform="translate(76.784432, 236.558218)"><g><path d="M 0.78125 -0.109375 L -0.09375 -6.703125 L 2.171875 -7 L 2.296875 -6.046875 L 2.3125 -6.046875 C 2.332031 -6.085938 2.359375 -6.132812 2.390625 -6.1875 C 2.429688 -6.25 2.503906 -6.351562 2.609375 -6.5 C 2.710938 -6.644531 2.832031 -6.773438 2.96875 -6.890625 C 3.113281 -7.003906 3.289062 -7.117188 3.5 -7.234375 C 3.71875 -7.347656 3.953125 -7.421875 4.203125 -7.453125 C 4.453125 -7.484375 4.695312 -7.476562 4.9375 -7.4375 C 5.1875 -7.40625 5.367188 -7.363281 5.484375 -7.3125 L 5.6875 -7.234375 L 5 -5.1875 C 4.6875 -5.375 4.28125 -5.4375 3.78125 -5.375 C 3.5 -5.34375 3.265625 -5.253906 3.078125 -5.109375 C 2.898438 -4.972656 2.78125 -4.8125 2.71875 -4.625 C 2.65625 -4.445312 2.613281 -4.296875 2.59375 -4.171875 C 2.582031 -4.046875 2.582031 -3.945312 2.59375 -3.875 L 3.046875 -0.40625 Z M 0.78125 -0.109375 "/></g></g></g><g fill="#000000" fill-opacity="1"><g transform="translate(82.220772, 235.857247)"><g><path d="M 0.921875 -10.359375 C 1.191406 -10.640625 1.507812 -10.78125 1.875 -10.78125 C 2.25 -10.78125 2.570312 -10.644531 2.84375 -10.375 C 3.113281 -10.101562 3.25 -9.78125 3.25 -9.40625 C 3.25 -9.039062 3.113281 -8.722656 2.84375 -8.453125 C 2.582031 -8.191406 2.265625 -8.0625 1.890625 -8.0625 C 1.523438 -8.0625 1.207031 -8.191406 0.9375 -8.453125 C 0.664062 -8.710938 0.53125 -9.023438 0.53125 -9.390625 C 0.53125 -9.765625 0.660156 -10.085938 0.921875 -10.359375 Z M 0.734375 -6.65625 L 0.78125 0 L 3.078125 -0.015625 L 3.03125 -6.671875 Z M 0.734375 -6.65625 "/></g></g></g><g fill="#000000" fill-opacity="1"><g transform="translate(85.169214, 235.703388)"><g><path d="M 4.859375 -4.4375 C 4.429688 -4.488281 4.046875 -4.367188 3.703125 -4.078125 C 3.359375 -3.796875 3.160156 -3.4375 3.109375 -3 C 3.054688 -2.539062 3.164062 -2.132812 3.4375 -1.78125 C 3.707031 -1.425781 4.054688 -1.222656 4.484375 -1.171875 C 4.691406 -1.148438 4.890625 -1.15625 5.078125 -1.1875 C 5.273438 -1.21875 5.414062 -1.253906 5.5 -1.296875 L 5.640625 -1.359375 L 6.21875 0.3125 C 6.15625 0.34375 6.066406 0.382812 5.953125 0.4375 C 5.835938 0.5 5.582031 0.5625 5.1875 0.625 C 4.789062 0.6875 4.375 0.695312 3.9375 0.65625 C 2.96875 0.539062 2.15625 0.0976562 1.5 -0.671875 C 0.84375 -1.441406 0.570312 -2.304688 0.6875 -3.265625 C 0.789062 -4.222656 1.25 -5 2.0625 -5.59375 C 2.882812 -6.195312 3.78125 -6.441406 4.75 -6.328125 C 5.1875 -6.285156 5.582031 -6.1875 5.9375 -6.03125 C 6.300781 -5.882812 6.546875 -5.753906 6.671875 -5.640625 L 6.890625 -5.453125 L 5.9375 -4 C 5.675781 -4.238281 5.316406 -4.382812 4.859375 -4.4375 Z M 4.859375 -4.4375 "/></g></g></g><g fill="#000000" fill-opacity="1"><g transform="translate(90.524313, 236.341375)"><g><path d="M 3.421875 -9.828125 C 3.742188 -10.023438 4.082031 -10.078125 4.4375 -9.984375 C 4.800781 -9.898438 5.082031 -9.695312 5.28125 -9.375 C 5.476562 -9.050781 5.53125 -8.707031 5.4375 -8.34375 C 5.351562 -7.988281 5.148438 -7.710938 4.828125 -7.515625 C 4.503906 -7.316406 4.160156 -7.257812 3.796875 -7.34375 C 3.441406 -7.4375 3.164062 -7.644531 2.96875 -7.96875 C 2.769531 -8.289062 2.710938 -8.628906 2.796875 -8.984375 C 2.890625 -9.347656 3.097656 -9.628906 3.421875 -9.828125 Z M 2.34375 -6.28125 L 0.765625 0.1875 L 2.984375 0.734375 L 4.5625 -5.734375 Z M 2.34375 -6.28125 "/></g></g></g><g fill="#000000" fill-opacity="1"><g transform="translate(93.387253, 236.775308)"><g><path d="M 0.71875 0.296875 L 3.265625 -5.859375 L 5.390625 -4.984375 L 5.125 -4.328125 L 5.140625 -4.3125 C 5.921875 -4.632812 6.617188 -4.671875 7.234375 -4.421875 C 7.535156 -4.296875 7.820312 -4.128906 8.09375 -3.921875 C 8.363281 -3.722656 8.597656 -3.484375 8.796875 -3.203125 C 9.003906 -2.921875 9.128906 -2.585938 9.171875 -2.203125 C 9.222656 -1.828125 9.164062 -1.4375 9 -1.03125 L 7.328125 3.03125 L 5.203125 2.15625 L 6.640625 -1.328125 C 6.773438 -1.640625 6.789062 -1.957031 6.6875 -2.28125 C 6.582031 -2.613281 6.363281 -2.847656 6.03125 -2.984375 C 5.71875 -3.109375 5.378906 -3.097656 5.015625 -2.953125 C 4.648438 -2.816406 4.40625 -2.601562 4.28125 -2.3125 L 2.84375 1.171875 Z M 0.71875 0.296875 "/></g></g></g><g fill="#000000" fill-opacity="1"><g transform="translate(100.261672, 239.454174)"><g><path d="M -0.546875 1.625 L 1.53125 1.953125 C 1.488281 2.609375 1.816406 3.179688 2.515625 3.671875 C 2.847656 3.898438 3.222656 4.007812 3.640625 4 C 4.066406 3.988281 4.425781 3.769531 4.71875 3.34375 L 5.015625 2.9375 C 4.421875 3.0625 3.695312 2.828125 2.84375 2.234375 C 2.0625 1.679688 1.609375 0.945312 1.484375 0.03125 C 1.367188 -0.882812 1.59375 -1.742188 2.15625 -2.546875 C 2.726562 -3.347656 3.460938 -3.847656 4.359375 -4.046875 C 5.265625 -4.242188 6.109375 -4.066406 6.890625 -3.515625 C 7.585938 -3.023438 8.019531 -2.398438 8.1875 -1.640625 L 8.21875 -1.625 L 8.5625 -2.125 L 10.4375 -0.8125 L 6.5 4.796875 C 5.882812 5.671875 5.113281 6.144531 4.1875 6.21875 C 3.257812 6.289062 2.316406 5.988281 1.359375 5.3125 C -0.191406 4.21875 -0.828125 2.988281 -0.546875 1.625 Z M 5.15625 -1.796875 C 4.738281 -1.722656 4.398438 -1.5 4.140625 -1.125 C 3.878906 -0.75 3.78125 -0.363281 3.84375 0.03125 C 3.914062 0.425781 4.144531 0.757812 4.53125 1.03125 C 4.894531 1.289062 5.28125 1.382812 5.6875 1.3125 C 6.09375 1.238281 6.425781 1.019531 6.6875 0.65625 C 6.945312 0.28125 7.039062 -0.113281 6.96875 -0.53125 C 6.894531 -0.945312 6.679688 -1.28125 6.328125 -1.53125 C 5.960938 -1.789062 5.570312 -1.878906 5.15625 -1.796875 Z M 5.15625 -1.796875 "/></g></g></g><g fill="#000000" fill-opacity="1"><g transform="translate(106.574996, 244.038472)"><g/></g></g><g fill="#000000" fill-opacity="1"><g transform="translate(108.532214, 245.852765)"><g><path d="M 8.421875 -6.078125 C 8.804688 -6.054688 9.117188 -5.90625 9.359375 -5.625 C 9.609375 -5.351562 9.71875 -5.03125 9.6875 -4.65625 C 9.664062 -4.28125 9.515625 -3.96875 9.234375 -3.71875 C 8.960938 -3.476562 8.632812 -3.367188 8.25 -3.390625 C 7.875 -3.410156 7.5625 -3.554688 7.3125 -3.828125 C 7.070312 -4.109375 6.960938 -4.4375 6.984375 -4.8125 C 7.015625 -5.195312 7.164062 -5.507812 7.4375 -5.75 C 7.71875 -6 8.046875 -6.109375 8.421875 -6.078125 Z M 5.515625 -3.8125 L 0.515625 0.59375 L 2.03125 2.3125 L 7.03125 -2.09375 Z M 5.515625 -3.8125 "/></g></g></g><g fill="#000000" fill-opacity="1"><g transform="translate(110.633693, 247.846343)"><g><path d="M 0.421875 0.65625 L 6.03125 -2.9375 L 7.265625 -1 L 6.671875 -0.609375 L 6.6875 -0.59375 C 7.507812 -0.40625 8.097656 -0.03125 8.453125 0.53125 C 8.640625 0.800781 8.78125 1.097656 8.875 1.421875 C 8.976562 1.742188 9.035156 2.078125 9.046875 2.421875 C 9.054688 2.765625 8.96875 3.101562 8.78125 3.4375 C 8.601562 3.78125 8.332031 4.070312 7.96875 4.3125 L 4.265625 6.671875 L 3.03125 4.734375 L 6.203125 2.703125 C 6.492188 2.515625 6.6875 2.257812 6.78125 1.9375 C 6.882812 1.613281 6.84375 1.300781 6.65625 1 C 6.46875 0.707031 6.179688 0.515625 5.796875 0.421875 C 5.421875 0.335938 5.097656 0.382812 4.828125 0.5625 L 1.65625 2.59375 Z M 0.421875 0.65625 "/></g></g></g><g fill="#000000" fill-opacity="1"><g transform="translate(114.598421, 254.245353)"><g/></g></g><g fill="#000000" fill-opacity="1"><g transform="translate(115.753222, 256.606823)"><g><path d="M 6.6875 -0.984375 L 9.03125 -1.765625 L 9.75 0.421875 L 7.40625 1.203125 L 7.84375 2.515625 L 6.1875 3.0625 L 5.75 1.75 L 3.734375 2.421875 C 3.160156 2.609375 2.925781 2.863281 3.03125 3.1875 C 3.0625 3.269531 3.109375 3.347656 3.171875 3.421875 C 3.234375 3.503906 3.28125 3.5625 3.3125 3.59375 L 3.40625 3.65625 L 1.8125 4.796875 C 1.414062 4.421875 1.113281 3.929688 0.90625 3.328125 C 0.769531 2.910156 0.722656 2.53125 0.765625 2.1875 C 0.816406 1.851562 0.9375 1.566406 1.125 1.328125 C 1.320312 1.097656 1.539062 0.90625 1.78125 0.75 C 2.03125 0.59375 2.300781 0.46875 2.59375 0.375 L 5.03125 -0.4375 L 4.71875 -1.359375 L 6.375 -1.90625 Z M 6.6875 -0.984375 "/></g></g></g><g fill="#000000" fill-opacity="1"><g transform="translate(117.256515, 260.376086)"><g><path d="M 0.125 0.765625 L 11.15625 -0.90625 L 11.5 1.375 L 6.359375 2.15625 L 6.359375 2.171875 C 7.035156 2.671875 7.421875 3.25 7.515625 3.90625 C 7.566406 4.238281 7.570312 4.566406 7.53125 4.890625 C 7.5 5.222656 7.414062 5.550781 7.28125 5.875 C 7.15625 6.207031 6.9375 6.488281 6.625 6.71875 C 6.320312 6.945312 5.957031 7.097656 5.53125 7.171875 L 1.1875 7.828125 L 0.84375 5.5625 L 4.5625 5 C 4.90625 4.945312 5.1875 4.789062 5.40625 4.53125 C 5.632812 4.269531 5.722656 3.96875 5.671875 3.625 C 5.617188 3.28125 5.4375 2.988281 5.125 2.75 C 4.820312 2.519531 4.507812 2.429688 4.1875 2.484375 L 0.46875 3.046875 Z M 0.125 0.765625 "/></g></g></g><g fill="#000000" fill-opacity="1"><g transform="translate(118.450476, 267.681477)"><g><path d="M 2.59375 7.671875 L 2.859375 2.859375 C 2.390625 2.828125 2.035156 2.957031 1.796875 3.25 C 1.554688 3.539062 1.425781 3.863281 1.40625 4.21875 C 1.382812 4.59375 1.414062 4.882812 1.5 5.09375 C 1.59375 5.3125 1.78125 5.566406 2.0625 5.859375 L 1.140625 7.46875 C 0.015625 6.71875 -0.5 5.539062 -0.40625 3.9375 C -0.351562 2.9375 0.0351562 2.097656 0.765625 1.421875 C 1.492188 0.742188 2.335938 0.429688 3.296875 0.484375 C 4.265625 0.535156 5.070312 0.9375 5.71875 1.6875 C 6.363281 2.445312 6.660156 3.328125 6.609375 4.328125 C 6.546875 5.367188 6.191406 6.203125 5.546875 6.828125 C 4.910156 7.460938 4.023438 7.75 2.890625 7.6875 C 2.742188 7.675781 2.644531 7.671875 2.59375 7.671875 Z M 4.125 2.984375 L 3.984375 5.5 C 4.335938 5.46875 4.609375 5.347656 4.796875 5.140625 C 4.992188 4.941406 5.101562 4.664062 5.125 4.3125 C 5.144531 3.9375 5.0625 3.628906 4.875 3.390625 C 4.695312 3.160156 4.445312 3.023438 4.125 2.984375 Z M 4.125 2.984375 "/></g></g></g><g fill="#000000" fill-opacity="1"><g transform="translate(117.997471, 274.470104)"><g/></g></g><g fill="#000000" fill-opacity="1"><g transform="translate(118.115851, 276.961045)"><g><path d="M -0.296875 0.71875 L 5.84375 3.296875 L 4.953125 5.421875 L 4.296875 5.15625 L 4.28125 5.171875 C 4.601562 5.953125 4.632812 6.648438 4.375 7.265625 C 4.1875 7.710938 3.914062 8.09375 3.5625 8.40625 C 3.21875 8.71875 2.8125 8.894531 2.34375 8.9375 C 2.832031 9.875 2.921875 10.707031 2.609375 11.4375 C 2.335938 12.09375 1.921875 12.578125 1.359375 12.890625 C 0.796875 13.203125 0.125 13.195312 -0.65625 12.875 L -4.703125 11.171875 L -3.8125 9.0625 L -0.34375 10.515625 C -0.0195312 10.660156 0.285156 10.6875 0.578125 10.59375 C 0.867188 10.507812 1.09375 10.285156 1.25 9.921875 C 1.382812 9.609375 1.390625 9.332031 1.265625 9.09375 C 1.148438 8.851562 0.96875 8.664062 0.71875 8.53125 L -2.9375 7 L -2.046875 4.875 L 1.421875 6.328125 C 1.742188 6.472656 2.050781 6.5 2.34375 6.40625 C 2.632812 6.320312 2.851562 6.101562 3 5.75 C 3.132812 5.425781 3.132812 5.140625 3 4.890625 C 2.875 4.648438 2.675781 4.472656 2.40625 4.359375 L -1.1875 2.84375 Z M -0.296875 0.71875 "/></g></g></g><g fill="#000000" fill-opacity="1"><g transform="translate(113.606978, 287.460591)"><g><path d="M -0.125 1.46875 C 0.789062 1.414062 1.628906 1.695312 2.390625 2.3125 C 3.160156 2.925781 3.617188 3.6875 3.765625 4.59375 C 3.910156 5.507812 3.679688 6.34375 3.078125 7.09375 C 2.535156 7.78125 1.863281 8.175781 1.0625 8.28125 L 1.5625 8.6875 L 0.125 10.46875 L -5.0625 6.296875 L -3.640625 4.53125 L -3.0625 5 L -3.046875 4.984375 C -3.160156 4.140625 -2.945312 3.375 -2.40625 2.6875 C -1.800781 1.9375 -1.039062 1.53125 -0.125 1.46875 Z M 1.46875 5.25 C 1.425781 4.832031 1.222656 4.476562 0.859375 4.1875 C 0.503906 3.90625 0.128906 3.785156 -0.265625 3.828125 C -0.671875 3.878906 -1.019531 4.085938 -1.3125 4.453125 C -1.59375 4.804688 -1.707031 5.1875 -1.65625 5.59375 C -1.613281 6.007812 -1.421875 6.359375 -1.078125 6.640625 C -0.710938 6.921875 -0.320312 7.035156 0.09375 6.984375 C 0.507812 6.929688 0.851562 6.738281 1.125 6.40625 C 1.40625 6.0625 1.519531 5.675781 1.46875 5.25 Z M 1.46875 5.25 "/></g></g></g><g fill="#000000" fill-opacity="1"><g transform="translate(108.777989, 293.4728)"><g><path d="M -0.59375 0.5 L 3.703125 5.578125 L 1.953125 7.0625 L 1.328125 6.328125 L 1.3125 6.34375 C 1.320312 6.382812 1.328125 6.4375 1.328125 6.5 C 1.328125 6.5625 1.320312 6.679688 1.3125 6.859375 C 1.300781 7.046875 1.269531 7.226562 1.21875 7.40625 C 1.175781 7.582031 1.09375 7.773438 0.96875 7.984375 C 0.84375 8.191406 0.6875 8.378906 0.5 8.546875 C 0.3125 8.703125 0.109375 8.832031 -0.109375 8.9375 C -0.335938 9.039062 -0.523438 9.101562 -0.671875 9.125 L -0.875 9.171875 L -1.390625 7.0625 C -1.023438 7.0625 -0.648438 6.898438 -0.265625 6.578125 C -0.046875 6.390625 0.0976562 6.1875 0.171875 5.96875 C 0.253906 5.75 0.269531 5.546875 0.21875 5.359375 C 0.164062 5.171875 0.113281 5.019531 0.0625 4.90625 C 0.0078125 4.789062 -0.0351562 4.707031 -0.078125 4.65625 L -2.34375 1.984375 Z M -0.59375 0.5 "/></g></g></g><g fill="#000000" fill-opacity="1"><g transform="translate(104.82214, 297.076123)"><g><path d="M -3.984375 9.921875 L -2.8125 5.59375 L -7.546875 4.296875 L -4.984375 2.84375 L -1.359375 3.828125 L -2.671875 1.515625 L -0.671875 0.390625 L 4.84375 10.078125 L 2.84375 11.203125 L -0.53125 5.28125 L -1.390625 8.453125 Z M -3.984375 9.921875 "/></g></g></g><g fill="#000000" fill-opacity="1"><g transform="translate(98.596178, 300.724841)"><g><path d="M -6.203125 5.203125 L -1.625 3.703125 C -1.769531 3.253906 -2.019531 2.96875 -2.375 2.84375 C -2.738281 2.726562 -3.085938 2.726562 -3.421875 2.84375 C -3.773438 2.957031 -4.035156 3.09375 -4.203125 3.25 C -4.378906 3.40625 -4.554688 3.671875 -4.734375 4.046875 L -6.5625 3.75 C -6.269531 2.445312 -5.359375 1.546875 -3.828125 1.046875 C -2.867188 0.734375 -1.941406 0.789062 -1.046875 1.21875 C -0.148438 1.65625 0.441406 2.332031 0.734375 3.25 C 1.035156 4.164062 0.953125 5.0625 0.484375 5.9375 C 0.015625 6.820312 -0.695312 7.421875 -1.65625 7.734375 C -2.65625 8.054688 -3.5625 8.03125 -4.375 7.65625 C -5.1875 7.28125 -5.769531 6.554688 -6.125 5.484375 C -6.164062 5.335938 -6.191406 5.242188 -6.203125 5.203125 Z M -1.28125 4.921875 L -3.6875 5.703125 C -3.539062 6.015625 -3.332031 6.222656 -3.0625 6.328125 C -2.800781 6.441406 -2.5 6.441406 -2.15625 6.328125 C -1.800781 6.210938 -1.546875 6.023438 -1.390625 5.765625 C -1.242188 5.515625 -1.207031 5.234375 -1.28125 4.921875 Z M -1.28125 4.921875 "/></g></g></g><g fill="#000000" fill-opacity="1"><g transform="translate(92.173766, 302.791541)"><g><path d="M -0.125 6.765625 L 0.25 9.203125 L -2.015625 9.546875 L -2.390625 7.109375 L -3.765625 7.328125 L -4.046875 5.59375 L -2.671875 5.375 L -3 3.28125 C -3.09375 2.6875 -3.3125 2.414062 -3.65625 2.46875 C -3.738281 2.488281 -3.820312 2.515625 -3.90625 2.546875 C -4 2.585938 -4.066406 2.628906 -4.109375 2.671875 L -4.1875 2.75 L -5.03125 1.015625 C -4.59375 0.660156 -4.054688 0.4375 -3.421875 0.34375 C -2.992188 0.269531 -2.613281 0.285156 -2.28125 0.390625 C -1.957031 0.492188 -1.695312 0.660156 -1.5 0.890625 C -1.300781 1.117188 -1.144531 1.367188 -1.03125 1.640625 C -0.925781 1.910156 -0.847656 2.195312 -0.796875 2.5 L -0.40625 5.03125 L 0.546875 4.875 L 0.828125 6.609375 Z M -0.125 6.765625 "/></g></g></g></svg>